{
    "asset" : {
        "generator" : "Khronos glTF Blender I/O v3.2.43",
        "version" : "2.0"
    },
    "scene" : 0,
    "scenes" : [
        {
            "name" : "Scene",
            "nodes" : [
                0
            ]
        }
    ],
    "nodes" : [
        {
            "mesh" : 0,
            "name" : "AlgaeModel"
        }
    ],
    "materials" : [
        {
            "doubleSided" : true,
            "name" : "AlgaeBlender",
            "pbrMetallicRoughness" : {
                "baseColorFactor" : [
                    0.0015303370309993625,
                    0.0272096935659647,
                    0,
                    1
                ],
                "metallicFactor" : 0,
                "roughnessFactor" : 0.8264248967170715
            }
        }
    ],
    "meshes" : [
        {
            "name" : "Plane.006",
            "primitives" : [
                {
                    "attributes" : {
                        "POSITION" : 0,
                        "NORMAL" : 1,
                        "TEXCOORD_0" : 2
                    },
                    "indices" : 3,
                    "material" : 0
                }
            ]
        }
    ],
    "accessors" : [
        {
            "bufferView" : 0,
            "componentType" : 5126,
            "count" : 4096,
            "max" : [
                0.6191717386245728,
                2.2152786254882812,
                0.6124719381332397
            ],
            "min" : [
                -0.4377305507659912,
                -0.5684069395065308,
                -0.38331738114356995
            ],
            "type" : "VEC3"
        },
        {
            "bufferView" : 1,
            "componentType" : 5126,
            "count" : 4096,
            "type" : "VEC3"
        },
        {
            "bufferView" : 2,
            "componentType" : 5126,
            "count" : 4096,
            "type" : "VEC2"
        },
        {
            "bufferView" : 3,
            "componentType" : 5123,
            "count" : 6144,
            "type" : "SCALAR"
        }
    ],
    "bufferViews" : [
        {
            "buffer" : 0,
            "byteLength" : 49152,
            "byteOffset" : 0
        },
        {
            "buffer" : 0,
            "byteLength" : 49152,
            "byteOffset" : 49152
        },
        {
            "buffer" : 0,
            "byteLength" : 32768,
            "byteOffset" : 98304
        },
        {
            "buffer" : 0,
            "byteLength" : 12288,
            "byteOffset" : 131072
        }
    ],
    "buffers" : [
        {
            "byteLength" : 143360,
            "uri" : "AlgaeBetter.bin"
        }
    ]
}
