{
    "asset" : {
        "generator" : "Khronos glTF Blender I/O v1.8.19",
        "version" : "2.0"
    },
    "scene" : 0,
    "scenes" : [
        {
            "name" : "Scene",
            "nodes" : [
                0
            ]
        }
    ],
    "nodes" : [
        {
            "mesh" : 0,
            "name" : "Algen"
        }
    ],
    "materials" : [
        {
            "doubleSided" : true,
            "name" : "Material",
            "pbrMetallicRoughness" : {
                "baseColorFactor" : [
                    0.27916577458381653,
                    0.8000000715255737,
                    0.24614499509334564,
                    1
                ],
                "metallicFactor" : 0,
                "roughnessFactor" : 0.5
            }
        }
    ],
    "meshes" : [
        {
            "name" : "Cube.007",
            "primitives" : [
                {
                    "attributes" : {
                        "POSITION" : 0,
                        "NORMAL" : 1,
                        "TEXCOORD_0" : 2
                    },
                    "indices" : 3,
                    "material" : 0
                }
            ]
        }
    ],
    "accessors" : [
        {
            "bufferView" : 0,
            "componentType" : 5126,
            "count" : 800,
            "max" : [
                1.447021722793579,
                7.248663425445557,
                1.035496711730957
            ],
            "min" : [
                -2.0329809188842773,
                -1.1626880168914795,
                -1.0422805547714233
            ],
            "type" : "VEC3"
        },
        {
            "bufferView" : 1,
            "componentType" : 5126,
            "count" : 800,
            "type" : "VEC3"
        },
        {
            "bufferView" : 2,
            "componentType" : 5126,
            "count" : 800,
            "type" : "VEC2"
        },
        {
            "bufferView" : 3,
            "componentType" : 5123,
            "count" : 1200,
            "type" : "SCALAR"
        }
    ],
    "bufferViews" : [
        {
            "buffer" : 0,
            "byteLength" : 9600,
            "byteOffset" : 0
        },
        {
            "buffer" : 0,
            "byteLength" : 9600,
            "byteOffset" : 9600
        },
        {
            "buffer" : 0,
            "byteLength" : 6400,
            "byteOffset" : 19200
        },
        {
            "buffer" : 0,
            "byteLength" : 2400,
            "byteOffset" : 25600
        }
    ],
    "buffers" : [
        {
            "byteLength" : 28000,
            "uri" : "Algen.bin"
        }
    ]
}
