{
    "asset" : {
        "generator" : "Khronos glTF Blender I/O v3.2.43",
        "version" : "2.0"
    },
    "scene" : 0,
    "scenes" : [
        {
            "name" : "Scene",
            "nodes" : [
                0
            ]
        }
    ],
    "nodes" : [
        {
            "mesh" : 0,
            "name" : "Base",
            "scale" : [
                100,
                100,
                100
            ]
        }
    ],
    "meshes" : [
        {
            "name" : "Plane",
            "primitives" : [
                {
                    "attributes" : {
                        "POSITION" : 0,
                        "NORMAL" : 1,
                        "TEXCOORD_0" : 2
                    },
                    "indices" : 3
                }
            ]
        }
    ],
    "accessors" : [
        {
            "bufferView" : 0,
            "componentType" : 5126,
            "count" : 1722,
            "max" : [
                1.2086045742034912,
                0.002148333005607128,
                0.802112877368927
            ],
            "min" : [
                -0.6603249311447144,
                -0.593441903591156,
                -0.5697265267372131
            ],
            "type" : "VEC3"
        },
        {
            "bufferView" : 1,
            "componentType" : 5126,
            "count" : 1722,
            "type" : "VEC3"
        },
        {
            "bufferView" : 2,
            "componentType" : 5126,
            "count" : 1722,
            "type" : "VEC2"
        },
        {
            "bufferView" : 3,
            "componentType" : 5123,
            "count" : 6960,
            "type" : "SCALAR"
        }
    ],
    "bufferViews" : [
        {
            "buffer" : 0,
            "byteLength" : 20664,
            "byteOffset" : 0
        },
        {
            "buffer" : 0,
            "byteLength" : 20664,
            "byteOffset" : 20664
        },
        {
            "buffer" : 0,
            "byteLength" : 13776,
            "byteOffset" : 41328
        },
        {
            "buffer" : 0,
            "byteLength" : 13920,
            "byteOffset" : 55104
        }
    ],
    "buffers" : [
        {
            "byteLength" : 69024,
            "uri" : "Base1Extra.bin"
        }
    ]
}
