{
    "asset" : {
        "generator" : "Khronos glTF Blender I/O v3.2.43",
        "version" : "2.0"
    },
    "scene" : 0,
    "scenes" : [
        {
            "name" : "Scene",
            "nodes" : [
                0
            ]
        }
    ],
    "nodes" : [
        {
            "mesh" : 0,
            "name" : "Base",
            "scale" : [
                100,
                100,
                100
            ]
        }
    ],
    "meshes" : [
        {
            "name" : "Plane",
            "primitives" : [
                {
                    "attributes" : {
                        "POSITION" : 0,
                        "NORMAL" : 1,
                        "TEXCOORD_0" : 2
                    },
                    "indices" : 3
                }
            ]
        }
    ],
    "accessors" : [
        {
            "bufferView" : 0,
            "componentType" : 5126,
            "count" : 1290,
            "max" : [
                0.6992820501327515,
                0.000187789584742859,
                0.6567854285240173
            ],
            "min" : [
                -0.6603249311447144,
                -0.44000008702278137,
                -0.5697265267372131
            ],
            "type" : "VEC3"
        },
        {
            "bufferView" : 1,
            "componentType" : 5126,
            "count" : 1290,
            "type" : "VEC3"
        },
        {
            "bufferView" : 2,
            "componentType" : 5126,
            "count" : 1290,
            "type" : "VEC2"
        },
        {
            "bufferView" : 3,
            "componentType" : 5123,
            "count" : 5040,
            "type" : "SCALAR"
        }
    ],
    "bufferViews" : [
        {
            "buffer" : 0,
            "byteLength" : 15480,
            "byteOffset" : 0
        },
        {
            "buffer" : 0,
            "byteLength" : 15480,
            "byteOffset" : 15480
        },
        {
            "buffer" : 0,
            "byteLength" : 10320,
            "byteOffset" : 30960
        },
        {
            "buffer" : 0,
            "byteLength" : 10080,
            "byteOffset" : 41280
        }
    ],
    "buffers" : [
        {
            "byteLength" : 51360,
            "uri" : "Base_1.bin"
        }
    ]
}
