{
    "asset" : {
        "generator" : "Khronos glTF Blender I/O v3.2.43",
        "version" : "2.0"
    },
    "scene" : 0,
    "scenes" : [
        {
            "name" : "Scene",
            "nodes" : [
                0
            ]
        }
    ],
    "nodes" : [
        {
            "mesh" : 0,
            "name" : "Map2",
            "scale" : [
                7.498500347137451,
                7.498500347137451,
                7.498500347137451
            ]
        }
    ],
    "meshes" : [
        {
            "name" : "Circle",
            "primitives" : [
                {
                    "attributes" : {
                        "POSITION" : 0,
                        "NORMAL" : 1,
                        "TEXCOORD_0" : 2
                    },
                    "indices" : 3
                }
            ]
        }
    ],
    "accessors" : [
        {
            "bufferView" : 0,
            "componentType" : 5126,
            "count" : 1026,
            "max" : [
                10.83121395111084,
                0.009226123802363873,
                2.078347682952881
            ],
            "min" : [
                -7.744010925292969,
                -8.951600074768066,
                -15.012317657470703
            ],
            "type" : "VEC3"
        },
        {
            "bufferView" : 1,
            "componentType" : 5126,
            "count" : 1026,
            "type" : "VEC3"
        },
        {
            "bufferView" : 2,
            "componentType" : 5126,
            "count" : 1026,
            "type" : "VEC2"
        },
        {
            "bufferView" : 3,
            "componentType" : 5123,
            "count" : 5730,
            "type" : "SCALAR"
        }
    ],
    "bufferViews" : [
        {
            "buffer" : 0,
            "byteLength" : 12312,
            "byteOffset" : 0
        },
        {
            "buffer" : 0,
            "byteLength" : 12312,
            "byteOffset" : 12312
        },
        {
            "buffer" : 0,
            "byteLength" : 8208,
            "byteOffset" : 24624
        },
        {
            "buffer" : 0,
            "byteLength" : 11460,
            "byteOffset" : 32832
        }
    ],
    "buffers" : [
        {
            "byteLength" : 44292,
            "uri" : "Base2.bin"
        }
    ]
}
