{
    "asset" : {
        "generator" : "Khronos glTF Blender I/O v3.2.43",
        "version" : "2.0"
    },
    "scene" : 0,
    "scenes" : [
        {
            "name" : "Scene",
            "nodes" : [
                0
            ]
        }
    ],
    "nodes" : [
        {
            "mesh" : 0,
            "name" : "BulletEffect"
        }
    ],
    "meshes" : [
        {
            "name" : "Cylinder",
            "primitives" : [
                {
                    "attributes" : {
                        "POSITION" : 0,
                        "NORMAL" : 1,
                        "TEXCOORD_0" : 2
                    },
                    "indices" : 3
                }
            ]
        }
    ],
    "accessors" : [
        {
            "bufferView" : 0,
            "componentType" : 5126,
            "count" : 663,
            "max" : [
                0.1533132791519165,
                0.15331335365772247,
                1.409290075302124
            ],
            "min" : [
                -0.1533132791519165,
                -0.15331335365772247,
                -1.409290075302124
            ],
            "type" : "VEC3"
        },
        {
            "bufferView" : 1,
            "componentType" : 5126,
            "count" : 663,
            "type" : "VEC3"
        },
        {
            "bufferView" : 2,
            "componentType" : 5126,
            "count" : 663,
            "type" : "VEC2"
        },
        {
            "bufferView" : 3,
            "componentType" : 5123,
            "count" : 3648,
            "type" : "SCALAR"
        }
    ],
    "bufferViews" : [
        {
            "buffer" : 0,
            "byteLength" : 7956,
            "byteOffset" : 0
        },
        {
            "buffer" : 0,
            "byteLength" : 7956,
            "byteOffset" : 7956
        },
        {
            "buffer" : 0,
            "byteLength" : 5304,
            "byteOffset" : 15912
        },
        {
            "buffer" : 0,
            "byteLength" : 7296,
            "byteOffset" : 21216
        }
    ],
    "buffers" : [
        {
            "byteLength" : 28512,
            "uri" : "BulletEffect.bin"
        }
    ]
}
