{
    "asset" : {
        "generator" : "Khronos glTF Blender I/O v3.2.43",
        "version" : "2.0"
    },
    "scene" : 0,
    "scenes" : [
        {
            "name" : "Scene",
            "nodes" : [
                0
            ]
        }
    ],
    "nodes" : [
        {
            "mesh" : 0,
            "name" : "Cylinder",
            "rotation" : [
                0.7071068286895752,
                0,
                0,
                0.7071068286895752
            ]
        }
    ],
    "materials" : [
        {
            "doubleSided" : true,
            "name" : "Bullet",
            "pbrMetallicRoughness" : {
                "baseColorFactor" : [
                    0.10247305035591125,
                    0.10247305035591125,
                    0.10247305035591125,
                    1
                ],
                "roughnessFactor" : 0.5777202248573303
            }
        }
    ],
    "meshes" : [
        {
            "name" : "Cylinder",
            "primitives" : [
                {
                    "attributes" : {
                        "POSITION" : 0,
                        "NORMAL" : 1,
                        "TEXCOORD_0" : 2
                    },
                    "indices" : 3,
                    "material" : 0
                }
            ]
        }
    ],
    "accessors" : [
        {
            "bufferView" : 0,
            "componentType" : 5126,
            "count" : 70,
            "max" : [
                0.0715433657169342,
                0.13229836523532867,
                0.0715433657169342
            ],
            "min" : [
                -0.0715433657169342,
                -0.09558364748954773,
                -0.0715433657169342
            ],
            "type" : "VEC3"
        },
        {
            "bufferView" : 1,
            "componentType" : 5126,
            "count" : 70,
            "type" : "VEC3"
        },
        {
            "bufferView" : 2,
            "componentType" : 5126,
            "count" : 70,
            "type" : "VEC2"
        },
        {
            "bufferView" : 3,
            "componentType" : 5123,
            "count" : 276,
            "type" : "SCALAR"
        }
    ],
    "bufferViews" : [
        {
            "buffer" : 0,
            "byteLength" : 840,
            "byteOffset" : 0
        },
        {
            "buffer" : 0,
            "byteLength" : 840,
            "byteOffset" : 840
        },
        {
            "buffer" : 0,
            "byteLength" : 560,
            "byteOffset" : 1680
        },
        {
            "buffer" : 0,
            "byteLength" : 552,
            "byteOffset" : 2240
        }
    ],
    "buffers" : [
        {
            "byteLength" : 2792,
            "uri" : "Bullet.bin"
        }
    ]
}
