{
    "asset" : {
        "generator" : "Khronos glTF Blender I/O v3.2.43",
        "version" : "2.0"
    },
    "scene" : 0,
    "scenes" : [
        {
            "name" : "Scene",
            "nodes" : [
                0,
                1,
                2
            ]
        }
    ],
    "nodes" : [
        {
            "mesh" : 0,
            "name" : "Cliff1"
        },
        {
            "mesh" : 1,
            "name" : "Cliff2"
        },
        {
            "mesh" : 2,
            "name" : "Cliff3"
        }
    ],
    "meshes" : [
        {
            "name" : "Plane",
            "primitives" : [
                {
                    "attributes" : {
                        "POSITION" : 0,
                        "NORMAL" : 1,
                        "TEXCOORD_0" : 2
                    },
                    "indices" : 3
                }
            ]
        },
        {
            "name" : "Cube",
            "primitives" : [
                {
                    "attributes" : {
                        "POSITION" : 4,
                        "NORMAL" : 5,
                        "TEXCOORD_0" : 6
                    },
                    "indices" : 7
                }
            ]
        },
        {
            "name" : "Cube.001",
            "primitives" : [
                {
                    "attributes" : {
                        "POSITION" : 8,
                        "NORMAL" : 9,
                        "TEXCOORD_0" : 10
                    },
                    "indices" : 11
                }
            ]
        }
    ],
    "accessors" : [
        {
            "bufferView" : 0,
            "componentType" : 5126,
            "count" : 84,
            "max" : [
                12.377394676208496,
                3.261044502258301,
                4.633613586425781
            ],
            "min" : [
                -12.278311729431152,
                -0.012548712082207203,
                -5.011600494384766
            ],
            "type" : "VEC3"
        },
        {
            "bufferView" : 1,
            "componentType" : 5126,
            "count" : 84,
            "type" : "VEC3"
        },
        {
            "bufferView" : 2,
            "componentType" : 5126,
            "count" : 84,
            "type" : "VEC2"
        },
        {
            "bufferView" : 3,
            "componentType" : 5123,
            "count" : 414,
            "type" : "SCALAR"
        },
        {
            "bufferView" : 4,
            "componentType" : 5126,
            "count" : 70,
            "max" : [
                6.921638011932373,
                1.8431545495986938,
                2.874624729156494
            ],
            "min" : [
                -7.372467041015625,
                -0.06546717882156372,
                -3.4909753799438477
            ],
            "type" : "VEC3"
        },
        {
            "bufferView" : 5,
            "componentType" : 5126,
            "count" : 70,
            "type" : "VEC3"
        },
        {
            "bufferView" : 6,
            "componentType" : 5126,
            "count" : 70,
            "type" : "VEC2"
        },
        {
            "bufferView" : 7,
            "componentType" : 5123,
            "count" : 228,
            "type" : "SCALAR"
        },
        {
            "bufferView" : 8,
            "componentType" : 5126,
            "count" : 50,
            "max" : [
                3.709376096725464,
                2.289517402648926,
                3.709376096725464
            ],
            "min" : [
                -3.709376096725464,
                0,
                -3.295269727706909
            ],
            "type" : "VEC3"
        },
        {
            "bufferView" : 9,
            "componentType" : 5126,
            "count" : 50,
            "type" : "VEC3"
        },
        {
            "bufferView" : 10,
            "componentType" : 5126,
            "count" : 50,
            "type" : "VEC2"
        },
        {
            "bufferView" : 11,
            "componentType" : 5123,
            "count" : 168,
            "type" : "SCALAR"
        }
    ],
    "bufferViews" : [
        {
            "buffer" : 0,
            "byteLength" : 1008,
            "byteOffset" : 0
        },
        {
            "buffer" : 0,
            "byteLength" : 1008,
            "byteOffset" : 1008
        },
        {
            "buffer" : 0,
            "byteLength" : 672,
            "byteOffset" : 2016
        },
        {
            "buffer" : 0,
            "byteLength" : 828,
            "byteOffset" : 2688
        },
        {
            "buffer" : 0,
            "byteLength" : 840,
            "byteOffset" : 3516
        },
        {
            "buffer" : 0,
            "byteLength" : 840,
            "byteOffset" : 4356
        },
        {
            "buffer" : 0,
            "byteLength" : 560,
            "byteOffset" : 5196
        },
        {
            "buffer" : 0,
            "byteLength" : 456,
            "byteOffset" : 5756
        },
        {
            "buffer" : 0,
            "byteLength" : 600,
            "byteOffset" : 6212
        },
        {
            "buffer" : 0,
            "byteLength" : 600,
            "byteOffset" : 6812
        },
        {
            "buffer" : 0,
            "byteLength" : 400,
            "byteOffset" : 7412
        },
        {
            "buffer" : 0,
            "byteLength" : 336,
            "byteOffset" : 7812
        }
    ],
    "buffers" : [
        {
            "byteLength" : 8148,
            "uri" : "Cliffs.bin"
        }
    ]
}
