{
    "asset" : {
        "generator" : "Khronos glTF Blender I/O v3.2.43",
        "version" : "2.0"
    },
    "scene" : 0,
    "scenes" : [
        {
            "name" : "Scene",
            "nodes" : [
                0
            ]
        }
    ],
    "nodes" : [
        {
            "mesh" : 0,
            "name" : "Cliff3"
        }
    ],
    "meshes" : [
        {
            "name" : "Cube.001",
            "primitives" : [
                {
                    "attributes" : {
                        "POSITION" : 0,
                        "NORMAL" : 1,
                        "TEXCOORD_0" : 2
                    },
                    "indices" : 3
                }
            ]
        }
    ],
    "accessors" : [
        {
            "bufferView" : 0,
            "componentType" : 5126,
            "count" : 56,
            "max" : [
                3.709376096725464,
                2.289517402648926,
                3.709376096725464
            ],
            "min" : [
                -3.709376096725464,
                0,
                -3.295269727706909
            ],
            "type" : "VEC3"
        },
        {
            "bufferView" : 1,
            "componentType" : 5126,
            "count" : 56,
            "type" : "VEC3"
        },
        {
            "bufferView" : 2,
            "componentType" : 5126,
            "count" : 56,
            "type" : "VEC2"
        },
        {
            "bufferView" : 3,
            "componentType" : 5123,
            "count" : 168,
            "type" : "SCALAR"
        }
    ],
    "bufferViews" : [
        {
            "buffer" : 0,
            "byteLength" : 672,
            "byteOffset" : 0
        },
        {
            "buffer" : 0,
            "byteLength" : 672,
            "byteOffset" : 672
        },
        {
            "buffer" : 0,
            "byteLength" : 448,
            "byteOffset" : 1344
        },
        {
            "buffer" : 0,
            "byteLength" : 336,
            "byteOffset" : 1792
        }
    ],
    "buffers" : [
        {
            "byteLength" : 2128,
            "uri" : "Cliffs_3_UV.bin"
        }
    ]
}
