{
    "asset" : {
        "generator" : "Khronos glTF Blender I/O v3.2.43",
        "version" : "2.0"
    },
    "scene" : 0,
    "scenes" : [
        {
            "name" : "Scene",
            "nodes" : [
                0,
                1,
                2,
                3,
                4,
                5
            ]
        }
    ],
    "nodes" : [
        {
            "mesh" : 0,
            "name" : "DrillBody",
            "translation" : [
                0,
                0.011802847497165203,
                0.04449184983968735
            ]
        },
        {
            "mesh" : 1,
            "name" : "DrillSpikes",
            "translation" : [
                0,
                0.011802847497165203,
                0.04449184983968735
            ]
        },
        {
            "mesh" : 2,
            "name" : "DrillTop",
            "translation" : [
                0,
                0.011802847497165203,
                0.04449184983968735
            ]
        },
        {
            "mesh" : 3,
            "name" : "DrillEyes",
            "translation" : [
                0,
                0.05497520789504051,
                0.17618688941001892
            ]
        },
        {
            "mesh" : 4,
            "name" : "DrillBottom",
            "translation" : [
                0,
                0.011802847497165203,
                0.04449184983968735
            ]
        },
        {
            "mesh" : 5,
            "name" : "DrillMiddle",
            "translation" : [
                0,
                0.011802847497165203,
                0.04449184983968735
            ]
        }
    ],
    "materials" : [
        {
            "doubleSided" : true,
            "name" : "Drill Primary",
            "pbrMetallicRoughness" : {
                "baseColorFactor" : [
                    0.03967934846878052,
                    0.03967934846878052,
                    0.03967934846878052,
                    1
                ],
                "metallicFactor" : 0,
                "roughnessFactor" : 0.5
            }
        },
        {
            "doubleSided" : true,
            "name" : "Drill Secondary",
            "pbrMetallicRoughness" : {
                "baseColorFactor" : [
                    0.8000000715255737,
                    0.3781792223453522,
                    0.1125248521566391,
                    1
                ],
                "metallicFactor" : 0,
                "roughnessFactor" : 0.5
            }
        },
        {
            "doubleSided" : true,
            "name" : "Drill Grey",
            "pbrMetallicRoughness" : {
                "baseColorFactor" : [
                    0.19598782062530518,
                    0.19598782062530518,
                    0.19598782062530518,
                    1
                ],
                "metallicFactor" : 0,
                "roughnessFactor" : 0.5
            }
        }
    ],
    "meshes" : [
        {
            "name" : "Cylinder",
            "primitives" : [
                {
                    "attributes" : {
                        "POSITION" : 0,
                        "NORMAL" : 1,
                        "TEXCOORD_0" : 2
                    },
                    "indices" : 3,
                    "material" : 0
                },
                {
                    "attributes" : {
                        "POSITION" : 4,
                        "NORMAL" : 5,
                        "TEXCOORD_0" : 6
                    },
                    "indices" : 7,
                    "material" : 1
                }
            ]
        },
        {
            "name" : "Cube.008",
            "primitives" : [
                {
                    "attributes" : {
                        "POSITION" : 8,
                        "NORMAL" : 9,
                        "TEXCOORD_0" : 10
                    },
                    "indices" : 11,
                    "material" : 1
                }
            ]
        },
        {
            "name" : "Cylinder.001",
            "primitives" : [
                {
                    "attributes" : {
                        "POSITION" : 12,
                        "NORMAL" : 13,
                        "TEXCOORD_0" : 14
                    },
                    "indices" : 15,
                    "material" : 2
                },
                {
                    "attributes" : {
                        "POSITION" : 16,
                        "NORMAL" : 17,
                        "TEXCOORD_0" : 18
                    },
                    "indices" : 19,
                    "material" : 1
                }
            ]
        },
        {
            "name" : "Cube",
            "primitives" : [
                {
                    "attributes" : {
                        "POSITION" : 20,
                        "NORMAL" : 21,
                        "TEXCOORD_0" : 22
                    },
                    "indices" : 23,
                    "material" : 1
                }
            ]
        },
        {
            "name" : "Cylinder.005",
            "primitives" : [
                {
                    "attributes" : {
                        "POSITION" : 24,
                        "NORMAL" : 25,
                        "TEXCOORD_0" : 26
                    },
                    "indices" : 27,
                    "material" : 2
                },
                {
                    "attributes" : {
                        "POSITION" : 28,
                        "NORMAL" : 29,
                        "TEXCOORD_0" : 30
                    },
                    "indices" : 31,
                    "material" : 1
                }
            ]
        },
        {
            "name" : "Cylinder.006",
            "primitives" : [
                {
                    "attributes" : {
                        "POSITION" : 32,
                        "NORMAL" : 33,
                        "TEXCOORD_0" : 34
                    },
                    "indices" : 35,
                    "material" : 2
                },
                {
                    "attributes" : {
                        "POSITION" : 36,
                        "NORMAL" : 37,
                        "TEXCOORD_0" : 38
                    },
                    "indices" : 39,
                    "material" : 1
                }
            ]
        }
    ],
    "accessors" : [
        {
            "bufferView" : 0,
            "componentType" : 5126,
            "count" : 340,
            "max" : [
                0.27755287289619446,
                0.044287171214818954,
                0.27755287289619446
            ],
            "min" : [
                -0.27755287289619446,
                -0.044287171214818954,
                -0.27755287289619446
            ],
            "type" : "VEC3"
        },
        {
            "bufferView" : 1,
            "componentType" : 5126,
            "count" : 340,
            "type" : "VEC3"
        },
        {
            "bufferView" : 2,
            "componentType" : 5126,
            "count" : 340,
            "type" : "VEC2"
        },
        {
            "bufferView" : 3,
            "componentType" : 5123,
            "count" : 624,
            "type" : "SCALAR"
        },
        {
            "bufferView" : 4,
            "componentType" : 5126,
            "count" : 118,
            "max" : [
                0.251786470413208,
                0.044287171214818954,
                0.26549291610717773
            ],
            "min" : [
                -0.251786470413208,
                -0.014762389473617077,
                -0.251786470413208
            ],
            "type" : "VEC3"
        },
        {
            "bufferView" : 5,
            "componentType" : 5126,
            "count" : 118,
            "type" : "VEC3"
        },
        {
            "bufferView" : 6,
            "componentType" : 5126,
            "count" : 118,
            "type" : "VEC2"
        },
        {
            "bufferView" : 7,
            "componentType" : 5123,
            "count" : 204,
            "type" : "SCALAR"
        },
        {
            "bufferView" : 8,
            "componentType" : 5126,
            "count" : 168,
            "max" : [
                0.33496350049972534,
                0.043616026639938354,
                0.26334840059280396
            ],
            "min" : [
                -0.33496350049972534,
                -0.043616026639938354,
                -0.33496350049972534
            ],
            "type" : "VEC3"
        },
        {
            "bufferView" : 9,
            "componentType" : 5126,
            "count" : 168,
            "type" : "VEC3"
        },
        {
            "bufferView" : 10,
            "componentType" : 5126,
            "count" : 168,
            "type" : "VEC2"
        },
        {
            "bufferView" : 11,
            "componentType" : 5123,
            "count" : 252,
            "type" : "SCALAR"
        },
        {
            "bufferView" : 12,
            "componentType" : 5126,
            "count" : 50,
            "max" : [
                0.25315001606941223,
                -0.0343942828476429,
                0.25315001606941223
            ],
            "min" : [
                -0.25314995646476746,
                -0.22540821135044098,
                -0.25314995646476746
            ],
            "type" : "VEC3"
        },
        {
            "bufferView" : 13,
            "componentType" : 5126,
            "count" : 50,
            "type" : "VEC3"
        },
        {
            "bufferView" : 14,
            "componentType" : 5126,
            "count" : 50,
            "type" : "VEC2"
        },
        {
            "bufferView" : 15,
            "componentType" : 5123,
            "count" : 138,
            "type" : "SCALAR"
        },
        {
            "bufferView" : 16,
            "componentType" : 5126,
            "count" : 134,
            "max" : [
                0.25315001606941223,
                -0.0343942828476429,
                0.25315001606941223
            ],
            "min" : [
                -0.25314995646476746,
                -0.241749569773674,
                -0.25314995646476746
            ],
            "type" : "VEC3"
        },
        {
            "bufferView" : 17,
            "componentType" : 5126,
            "count" : 134,
            "type" : "VEC3"
        },
        {
            "bufferView" : 18,
            "componentType" : 5126,
            "count" : 134,
            "type" : "VEC2"
        },
        {
            "bufferView" : 19,
            "componentType" : 5123,
            "count" : 480,
            "type" : "SCALAR"
        },
        {
            "bufferView" : 20,
            "componentType" : 5126,
            "count" : 48,
            "max" : [
                0.07753321528434753,
                0.015897173434495926,
                0.04464644938707352
            ],
            "min" : [
                -0.07753321528434753,
                -0.015897173434495926,
                -0.045142147690057755
            ],
            "type" : "VEC3"
        },
        {
            "bufferView" : 21,
            "componentType" : 5126,
            "count" : 48,
            "type" : "VEC3"
        },
        {
            "bufferView" : 22,
            "componentType" : 5126,
            "count" : 48,
            "type" : "VEC2"
        },
        {
            "bufferView" : 23,
            "componentType" : 5123,
            "count" : 72,
            "type" : "SCALAR"
        },
        {
            "bufferView" : 24,
            "componentType" : 5126,
            "count" : 32,
            "max" : [
                0.045037753880023956,
                -0.3925130069255829,
                0.045037731528282166
            ],
            "min" : [
                -0.04503767564892769,
                -0.46994420886039734,
                -0.04503769427537918
            ],
            "type" : "VEC3"
        },
        {
            "bufferView" : 25,
            "componentType" : 5126,
            "count" : 32,
            "type" : "VEC3"
        },
        {
            "bufferView" : 26,
            "componentType" : 5126,
            "count" : 32,
            "type" : "VEC2"
        },
        {
            "bufferView" : 27,
            "componentType" : 5123,
            "count" : 96,
            "type" : "SCALAR"
        },
        {
            "bufferView" : 28,
            "componentType" : 5126,
            "count" : 48,
            "max" : [
                0.014773975126445293,
                -0.46994420886039734,
                0.014773938804864883
            ],
            "min" : [
                -0.014773871749639511,
                -0.48360610008239746,
                -0.014773903414607048
            ],
            "type" : "VEC3"
        },
        {
            "bufferView" : 29,
            "componentType" : 5126,
            "count" : 48,
            "type" : "VEC3"
        },
        {
            "bufferView" : 30,
            "componentType" : 5126,
            "count" : 48,
            "type" : "VEC2"
        },
        {
            "bufferView" : 31,
            "componentType" : 5123,
            "count" : 234,
            "type" : "SCALAR"
        },
        {
            "bufferView" : 32,
            "componentType" : 5126,
            "count" : 32,
            "max" : [
                0.12755106389522552,
                -0.241749569773674,
                0.12755106389522552
            ],
            "min" : [
                -0.12755103409290314,
                -0.3785703480243683,
                -0.12755103409290314
            ],
            "type" : "VEC3"
        },
        {
            "bufferView" : 33,
            "componentType" : 5126,
            "count" : 32,
            "type" : "VEC3"
        },
        {
            "bufferView" : 34,
            "componentType" : 5126,
            "count" : 32,
            "type" : "VEC2"
        },
        {
            "bufferView" : 35,
            "componentType" : 5123,
            "count" : 96,
            "type" : "SCALAR"
        },
        {
            "bufferView" : 36,
            "componentType" : 5126,
            "count" : 64,
            "max" : [
                0.06089959293603897,
                -0.3785703182220459,
                0.06089957430958748
            ],
            "min" : [
                -0.0608995258808136,
                -0.3925130069255829,
                -0.060899537056684494
            ],
            "type" : "VEC3"
        },
        {
            "bufferView" : 37,
            "componentType" : 5126,
            "count" : 64,
            "type" : "VEC3"
        },
        {
            "bufferView" : 38,
            "componentType" : 5126,
            "count" : 64,
            "type" : "VEC2"
        },
        {
            "bufferView" : 39,
            "componentType" : 5123,
            "count" : 288,
            "type" : "SCALAR"
        }
    ],
    "bufferViews" : [
        {
            "buffer" : 0,
            "byteLength" : 4080,
            "byteOffset" : 0
        },
        {
            "buffer" : 0,
            "byteLength" : 4080,
            "byteOffset" : 4080
        },
        {
            "buffer" : 0,
            "byteLength" : 2720,
            "byteOffset" : 8160
        },
        {
            "buffer" : 0,
            "byteLength" : 1248,
            "byteOffset" : 10880
        },
        {
            "buffer" : 0,
            "byteLength" : 1416,
            "byteOffset" : 12128
        },
        {
            "buffer" : 0,
            "byteLength" : 1416,
            "byteOffset" : 13544
        },
        {
            "buffer" : 0,
            "byteLength" : 944,
            "byteOffset" : 14960
        },
        {
            "buffer" : 0,
            "byteLength" : 408,
            "byteOffset" : 15904
        },
        {
            "buffer" : 0,
            "byteLength" : 2016,
            "byteOffset" : 16312
        },
        {
            "buffer" : 0,
            "byteLength" : 2016,
            "byteOffset" : 18328
        },
        {
            "buffer" : 0,
            "byteLength" : 1344,
            "byteOffset" : 20344
        },
        {
            "buffer" : 0,
            "byteLength" : 504,
            "byteOffset" : 21688
        },
        {
            "buffer" : 0,
            "byteLength" : 600,
            "byteOffset" : 22192
        },
        {
            "buffer" : 0,
            "byteLength" : 600,
            "byteOffset" : 22792
        },
        {
            "buffer" : 0,
            "byteLength" : 400,
            "byteOffset" : 23392
        },
        {
            "buffer" : 0,
            "byteLength" : 276,
            "byteOffset" : 23792
        },
        {
            "buffer" : 0,
            "byteLength" : 1608,
            "byteOffset" : 24068
        },
        {
            "buffer" : 0,
            "byteLength" : 1608,
            "byteOffset" : 25676
        },
        {
            "buffer" : 0,
            "byteLength" : 1072,
            "byteOffset" : 27284
        },
        {
            "buffer" : 0,
            "byteLength" : 960,
            "byteOffset" : 28356
        },
        {
            "buffer" : 0,
            "byteLength" : 576,
            "byteOffset" : 29316
        },
        {
            "buffer" : 0,
            "byteLength" : 576,
            "byteOffset" : 29892
        },
        {
            "buffer" : 0,
            "byteLength" : 384,
            "byteOffset" : 30468
        },
        {
            "buffer" : 0,
            "byteLength" : 144,
            "byteOffset" : 30852
        },
        {
            "buffer" : 0,
            "byteLength" : 384,
            "byteOffset" : 30996
        },
        {
            "buffer" : 0,
            "byteLength" : 384,
            "byteOffset" : 31380
        },
        {
            "buffer" : 0,
            "byteLength" : 256,
            "byteOffset" : 31764
        },
        {
            "buffer" : 0,
            "byteLength" : 192,
            "byteOffset" : 32020
        },
        {
            "buffer" : 0,
            "byteLength" : 576,
            "byteOffset" : 32212
        },
        {
            "buffer" : 0,
            "byteLength" : 576,
            "byteOffset" : 32788
        },
        {
            "buffer" : 0,
            "byteLength" : 384,
            "byteOffset" : 33364
        },
        {
            "buffer" : 0,
            "byteLength" : 468,
            "byteOffset" : 33748
        },
        {
            "buffer" : 0,
            "byteLength" : 384,
            "byteOffset" : 34216
        },
        {
            "buffer" : 0,
            "byteLength" : 384,
            "byteOffset" : 34600
        },
        {
            "buffer" : 0,
            "byteLength" : 256,
            "byteOffset" : 34984
        },
        {
            "buffer" : 0,
            "byteLength" : 192,
            "byteOffset" : 35240
        },
        {
            "buffer" : 0,
            "byteLength" : 768,
            "byteOffset" : 35432
        },
        {
            "buffer" : 0,
            "byteLength" : 768,
            "byteOffset" : 36200
        },
        {
            "buffer" : 0,
            "byteLength" : 512,
            "byteOffset" : 36968
        },
        {
            "buffer" : 0,
            "byteLength" : 576,
            "byteOffset" : 37480
        }
    ],
    "buffers" : [
        {
            "byteLength" : 38056,
            "uri" : "Drill.bin"
        }
    ]
}
