{
    "asset" : {
        "generator" : "Khronos glTF Blender I/O v3.2.43",
        "version" : "2.0"
    },
    "scene" : 0,
    "scenes" : [
        {
            "name" : "Scene",
            "nodes" : [
                6
            ]
        }
    ],
    "nodes" : [
        {
            "name" : "Bone.002",
            "rotation" : [
                -5.7463966918192e-09,
                -2.625625050711733e-08,
                -0.028348326683044434,
                0.9995981454849243
            ],
            "scale" : [
                0.9999999403953552,
                0.9999998211860657,
                1
            ],
            "translation" : [
                8.996450251430588e-10,
                0.40021830797195435,
                2.6272202191535143e-09
            ]
        },
        {
            "children" : [
                0
            ],
            "name" : "Bone.001",
            "rotation" : [
                0.011047321371734142,
                -0.00019066203094553202,
                0.01725880056619644,
                0.9997900128364563
            ],
            "translation" : [
                -3.108624468950438e-14,
                0.6127063632011414,
                1.1640998165418637e-09
            ]
        },
        {
            "children" : [
                1
            ],
            "name" : "Bone",
            "rotation" : [
                -0.0006551879923790693,
                -1.2947268146490387e-07,
                -1.0185394749839816e-08,
                0.9999998211860657
            ],
            "scale" : [
                1,
                0.9999999403953552,
                0.9999999403953552
            ]
        },
        {
            "mesh" : 0,
            "name" : "EelBody",
            "skin" : 0
        },
        {
            "mesh" : 1,
            "name" : "EelEyes",
            "skin" : 0
        },
        {
            "mesh" : 2,
            "name" : "EelKamm",
            "skin" : 0
        },
        {
            "children" : [
                3,
                4,
                5,
                2
            ],
            "name" : "EelArmature",
            "rotation" : [
                0,
                -0.7144181132316589,
                0.6997190713882446,
                1.1639350105951962e-07
            ],
            "translation" : [
                0,
                0,
                0.7382071018218994
            ]
        }
    ],
    "materials" : [
        {
            "doubleSided" : true,
            "name" : "Eel Yellow",
            "pbrMetallicRoughness" : {
                "baseColorFactor" : [
                    0.8000000715255737,
                    0.5270931720733643,
                    0.0950416550040245,
                    1
                ],
                "metallicFactor" : 0,
                "roughnessFactor" : 0.5
            }
        },
        {
            "doubleSided" : true,
            "name" : "Eel Eye",
            "pbrMetallicRoughness" : {
                "baseColorFactor" : [
                    0.800000011920929,
                    0.800000011920929,
                    0.800000011920929,
                    1
                ],
                "metallicFactor" : 0,
                "roughnessFactor" : 0.5
            }
        },
        {
            "doubleSided" : true,
            "name" : "Eel EyeIris",
            "pbrMetallicRoughness" : {
                "baseColorFactor" : [
                    0.002063401974737644,
                    0.002063401974737644,
                    0.002063401974737644,
                    1
                ],
                "metallicFactor" : 0,
                "roughnessFactor" : 0.5
            }
        },
        {
            "doubleSided" : true,
            "name" : "Eel Blue",
            "pbrMetallicRoughness" : {
                "baseColorFactor" : [
                    0.12500949203968048,
                    0.42002421617507935,
                    0.38522854447364807,
                    1
                ],
                "metallicFactor" : 0,
                "roughnessFactor" : 0.5
            }
        }
    ],
    "meshes" : [
        {
            "name" : "Cylinder.002",
            "primitives" : [
                {
                    "attributes" : {
                        "POSITION" : 0,
                        "NORMAL" : 1,
                        "TEXCOORD_0" : 2,
                        "JOINTS_0" : 3,
                        "WEIGHTS_0" : 4
                    },
                    "indices" : 5,
                    "material" : 0
                }
            ]
        },
        {
            "name" : "Sphere",
            "primitives" : [
                {
                    "attributes" : {
                        "POSITION" : 7,
                        "NORMAL" : 8,
                        "TEXCOORD_0" : 9,
                        "JOINTS_0" : 10,
                        "WEIGHTS_0" : 11
                    },
                    "indices" : 12,
                    "material" : 1
                },
                {
                    "attributes" : {
                        "POSITION" : 13,
                        "NORMAL" : 14,
                        "TEXCOORD_0" : 15,
                        "JOINTS_0" : 16,
                        "WEIGHTS_0" : 17
                    },
                    "indices" : 18,
                    "material" : 2
                }
            ]
        },
        {
            "name" : "Cylinder.008",
            "primitives" : [
                {
                    "attributes" : {
                        "POSITION" : 19,
                        "NORMAL" : 20,
                        "TEXCOORD_0" : 21,
                        "JOINTS_0" : 22,
                        "WEIGHTS_0" : 23
                    },
                    "indices" : 24,
                    "material" : 3
                }
            ]
        }
    ],
    "skins" : [
        {
            "inverseBindMatrices" : 6,
            "joints" : [
                2,
                1,
                0
            ],
            "name" : "EelArmature"
        }
    ],
    "accessors" : [
        {
            "bufferView" : 0,
            "componentType" : 5126,
            "count" : 366,
            "max" : [
                0.07681649923324585,
                0.08097565174102783,
                0.8238709568977356
            ],
            "min" : [
                -0.07681649923324585,
                -0.08097580820322037,
                -0.9417142868041992
            ],
            "type" : "VEC3"
        },
        {
            "bufferView" : 1,
            "componentType" : 5126,
            "count" : 366,
            "type" : "VEC3"
        },
        {
            "bufferView" : 2,
            "componentType" : 5126,
            "count" : 366,
            "type" : "VEC2"
        },
        {
            "bufferView" : 3,
            "componentType" : 5121,
            "count" : 366,
            "type" : "VEC4"
        },
        {
            "bufferView" : 4,
            "componentType" : 5126,
            "count" : 366,
            "type" : "VEC4"
        },
        {
            "bufferView" : 5,
            "componentType" : 5123,
            "count" : 1911,
            "type" : "SCALAR"
        },
        {
            "bufferView" : 6,
            "componentType" : 5126,
            "count" : 3,
            "type" : "MAT4"
        },
        {
            "bufferView" : 7,
            "componentType" : 5126,
            "count" : 158,
            "max" : [
                0.05909218266606331,
                0.06469543278217316,
                0.7702155709266663
            ],
            "min" : [
                -0.05909218266606331,
                0.004335418343544006,
                0.7098555564880371
            ],
            "type" : "VEC3"
        },
        {
            "bufferView" : 8,
            "componentType" : 5126,
            "count" : 158,
            "type" : "VEC3"
        },
        {
            "bufferView" : 9,
            "componentType" : 5126,
            "count" : 158,
            "type" : "VEC2"
        },
        {
            "bufferView" : 10,
            "componentType" : 5121,
            "count" : 158,
            "type" : "VEC4"
        },
        {
            "bufferView" : 11,
            "componentType" : 5126,
            "count" : 158,
            "type" : "VEC4"
        },
        {
            "bufferView" : 12,
            "componentType" : 5123,
            "count" : 660,
            "type" : "SCALAR"
        },
        {
            "bufferView" : 13,
            "componentType" : 5126,
            "count" : 8,
            "max" : [
                0.04862821847200394,
                0.05585591122508049,
                0.7679182887077332
            ],
            "min" : [
                -0.04862821847200394,
                0.04606481269001961,
                0.7551255822181702
            ],
            "type" : "VEC3"
        },
        {
            "bufferView" : 14,
            "componentType" : 5126,
            "count" : 8,
            "type" : "VEC3"
        },
        {
            "bufferView" : 15,
            "componentType" : 5126,
            "count" : 8,
            "type" : "VEC2"
        },
        {
            "bufferView" : 16,
            "componentType" : 5121,
            "count" : 8,
            "type" : "VEC4"
        },
        {
            "bufferView" : 17,
            "componentType" : 5126,
            "count" : 8,
            "type" : "VEC4"
        },
        {
            "bufferView" : 18,
            "componentType" : 5123,
            "count" : 12,
            "type" : "SCALAR"
        },
        {
            "bufferView" : 19,
            "componentType" : 5126,
            "count" : 64,
            "max" : [
                0.005056038964539766,
                0.18495889008045197,
                0.6233400106430054
            ],
            "min" : [
                -0.005056038964539766,
                0.02541637048125267,
                -0.9404076337814331
            ],
            "type" : "VEC3"
        },
        {
            "bufferView" : 20,
            "componentType" : 5126,
            "count" : 64,
            "type" : "VEC3"
        },
        {
            "bufferView" : 21,
            "componentType" : 5126,
            "count" : 64,
            "type" : "VEC2"
        },
        {
            "bufferView" : 22,
            "componentType" : 5121,
            "count" : 64,
            "type" : "VEC4"
        },
        {
            "bufferView" : 23,
            "componentType" : 5126,
            "count" : 64,
            "type" : "VEC4"
        },
        {
            "bufferView" : 24,
            "componentType" : 5123,
            "count" : 282,
            "type" : "SCALAR"
        }
    ],
    "bufferViews" : [
        {
            "buffer" : 0,
            "byteLength" : 4392,
            "byteOffset" : 0
        },
        {
            "buffer" : 0,
            "byteLength" : 4392,
            "byteOffset" : 4392
        },
        {
            "buffer" : 0,
            "byteLength" : 2928,
            "byteOffset" : 8784
        },
        {
            "buffer" : 0,
            "byteLength" : 1464,
            "byteOffset" : 11712
        },
        {
            "buffer" : 0,
            "byteLength" : 5856,
            "byteOffset" : 13176
        },
        {
            "buffer" : 0,
            "byteLength" : 3822,
            "byteOffset" : 19032
        },
        {
            "buffer" : 0,
            "byteLength" : 192,
            "byteOffset" : 22856
        },
        {
            "buffer" : 0,
            "byteLength" : 1896,
            "byteOffset" : 23048
        },
        {
            "buffer" : 0,
            "byteLength" : 1896,
            "byteOffset" : 24944
        },
        {
            "buffer" : 0,
            "byteLength" : 1264,
            "byteOffset" : 26840
        },
        {
            "buffer" : 0,
            "byteLength" : 632,
            "byteOffset" : 28104
        },
        {
            "buffer" : 0,
            "byteLength" : 2528,
            "byteOffset" : 28736
        },
        {
            "buffer" : 0,
            "byteLength" : 1320,
            "byteOffset" : 31264
        },
        {
            "buffer" : 0,
            "byteLength" : 96,
            "byteOffset" : 32584
        },
        {
            "buffer" : 0,
            "byteLength" : 96,
            "byteOffset" : 32680
        },
        {
            "buffer" : 0,
            "byteLength" : 64,
            "byteOffset" : 32776
        },
        {
            "buffer" : 0,
            "byteLength" : 32,
            "byteOffset" : 32840
        },
        {
            "buffer" : 0,
            "byteLength" : 128,
            "byteOffset" : 32872
        },
        {
            "buffer" : 0,
            "byteLength" : 24,
            "byteOffset" : 33000
        },
        {
            "buffer" : 0,
            "byteLength" : 768,
            "byteOffset" : 33024
        },
        {
            "buffer" : 0,
            "byteLength" : 768,
            "byteOffset" : 33792
        },
        {
            "buffer" : 0,
            "byteLength" : 512,
            "byteOffset" : 34560
        },
        {
            "buffer" : 0,
            "byteLength" : 256,
            "byteOffset" : 35072
        },
        {
            "buffer" : 0,
            "byteLength" : 1024,
            "byteOffset" : 35328
        },
        {
            "buffer" : 0,
            "byteLength" : 564,
            "byteOffset" : 36352
        }
    ],
    "buffers" : [
        {
            "byteLength" : 36916,
            "uri" : "EelKamm.bin"
        }
    ]
}
