{
    "asset" : {
        "generator" : "Khronos glTF Blender I/O v1.8.19",
        "version" : "2.0"
    },
    "scene" : 0,
    "scenes" : [
        {
            "name" : "Scene",
            "nodes" : [
                0
            ]
        }
    ],
    "nodes" : [
        {
            "mesh" : 0,
            "name" : "FishV2"
        }
    ],
    "materials" : [
        {
            "doubleSided" : true,
            "name" : "Fish Eye",
            "pbrMetallicRoughness" : {
                "baseColorFactor" : [
                    0.800000011920929,
                    0.800000011920929,
                    0.800000011920929,
                    1
                ],
                "metallicFactor" : 0,
                "roughnessFactor" : 0.5
            }
        },
        {
            "doubleSided" : true,
            "name" : "Fish Eye Iris",
            "pbrMetallicRoughness" : {
                "baseColorFactor" : [
                    0.035217683762311935,
                    0.035217683762311935,
                    0.035217683762311935,
                    1
                ],
                "metallicFactor" : 0,
                "roughnessFactor" : 0.5
            }
        },
        {
            "doubleSided" : true,
            "name" : "FishPrimaryV2",
            "pbrMetallicRoughness" : {
                "baseColorFactor" : [
                    0.1504247635602951,
                    0.16636580228805542,
                    0.3757488429546356,
                    1
                ],
                "metallicFactor" : 0,
                "roughnessFactor" : 0.5
            }
        },
        {
            "doubleSided" : true,
            "name" : "FishSecondaryV2",
            "pbrMetallicRoughness" : {
                "baseColorFactor" : [
                    0.2558095157146454,
                    0.5645647048950195,
                    0.8000000715255737,
                    1
                ],
                "metallicFactor" : 0,
                "roughnessFactor" : 0.5
            }
        }
    ],
    "meshes" : [
        {
            "name" : "Sphere.002",
            "primitives" : [
                {
                    "attributes" : {
                        "POSITION" : 0,
                        "NORMAL" : 1,
                        "TEXCOORD_0" : 2
                    },
                    "indices" : 3,
                    "material" : 0
                },
                {
                    "attributes" : {
                        "POSITION" : 4,
                        "NORMAL" : 5,
                        "TEXCOORD_0" : 6
                    },
                    "indices" : 7,
                    "material" : 1
                },
                {
                    "attributes" : {
                        "POSITION" : 8,
                        "NORMAL" : 9,
                        "TEXCOORD_0" : 10
                    },
                    "indices" : 11,
                    "material" : 2
                },
                {
                    "attributes" : {
                        "POSITION" : 12,
                        "NORMAL" : 13,
                        "TEXCOORD_0" : 14
                    },
                    "indices" : 15,
                    "material" : 3
                }
            ]
        }
    ],
    "accessors" : [
        {
            "bufferView" : 0,
            "componentType" : 5126,
            "count" : 86,
            "max" : [
                0.07455210387706757,
                0.04968889802694321,
                0.09569205343723297
            ],
            "min" : [
                -0.07455210387706757,
                -0.00033748894929885864,
                0.04605132341384888
            ],
            "type" : "VEC3"
        },
        {
            "bufferView" : 1,
            "componentType" : 5126,
            "count" : 86,
            "type" : "VEC3"
        },
        {
            "bufferView" : 2,
            "componentType" : 5126,
            "count" : 86,
            "type" : "VEC2"
        },
        {
            "bufferView" : 3,
            "componentType" : 5123,
            "count" : 276,
            "type" : "SCALAR"
        },
        {
            "bufferView" : 4,
            "componentType" : 5126,
            "count" : 8,
            "max" : [
                0.06509043276309967,
                0.04236270487308502,
                0.09569205343723297
            ],
            "min" : [
                -0.06509043276309967,
                0.024675702676177025,
                0.08483181148767471
            ],
            "type" : "VEC3"
        },
        {
            "bufferView" : 5,
            "componentType" : 5126,
            "count" : 8,
            "type" : "VEC3"
        },
        {
            "bufferView" : 6,
            "componentType" : 5126,
            "count" : 8,
            "type" : "VEC2"
        },
        {
            "bufferView" : 7,
            "componentType" : 5123,
            "count" : 12,
            "type" : "SCALAR"
        },
        {
            "bufferView" : 8,
            "componentType" : 5126,
            "count" : 151,
            "max" : [
                0.10093563050031662,
                0.10093563050031662,
                0.10093564540147781
            ],
            "min" : [
                -0.10093562304973602,
                -0.10093563050031662,
                -0.2247740775346756
            ],
            "type" : "VEC3"
        },
        {
            "bufferView" : 9,
            "componentType" : 5126,
            "count" : 151,
            "type" : "VEC3"
        },
        {
            "bufferView" : 10,
            "componentType" : 5126,
            "count" : 151,
            "type" : "VEC2"
        },
        {
            "bufferView" : 11,
            "componentType" : 5123,
            "count" : 672,
            "type" : "SCALAR"
        },
        {
            "bufferView" : 12,
            "componentType" : 5126,
            "count" : 110,
            "max" : [
                0.1277112513780594,
                0.13596029579639435,
                0.09939021617174149
            ],
            "min" : [
                -0.1277112513780594,
                -0.11278115957975388,
                -0.3268476724624634
            ],
            "type" : "VEC3"
        },
        {
            "bufferView" : 13,
            "componentType" : 5126,
            "count" : 110,
            "type" : "VEC3"
        },
        {
            "bufferView" : 14,
            "componentType" : 5126,
            "count" : 110,
            "type" : "VEC2"
        },
        {
            "bufferView" : 15,
            "componentType" : 5123,
            "count" : 564,
            "type" : "SCALAR"
        }
    ],
    "bufferViews" : [
        {
            "buffer" : 0,
            "byteLength" : 1032,
            "byteOffset" : 0
        },
        {
            "buffer" : 0,
            "byteLength" : 1032,
            "byteOffset" : 1032
        },
        {
            "buffer" : 0,
            "byteLength" : 688,
            "byteOffset" : 2064
        },
        {
            "buffer" : 0,
            "byteLength" : 552,
            "byteOffset" : 2752
        },
        {
            "buffer" : 0,
            "byteLength" : 96,
            "byteOffset" : 3304
        },
        {
            "buffer" : 0,
            "byteLength" : 96,
            "byteOffset" : 3400
        },
        {
            "buffer" : 0,
            "byteLength" : 64,
            "byteOffset" : 3496
        },
        {
            "buffer" : 0,
            "byteLength" : 24,
            "byteOffset" : 3560
        },
        {
            "buffer" : 0,
            "byteLength" : 1812,
            "byteOffset" : 3584
        },
        {
            "buffer" : 0,
            "byteLength" : 1812,
            "byteOffset" : 5396
        },
        {
            "buffer" : 0,
            "byteLength" : 1208,
            "byteOffset" : 7208
        },
        {
            "buffer" : 0,
            "byteLength" : 1344,
            "byteOffset" : 8416
        },
        {
            "buffer" : 0,
            "byteLength" : 1320,
            "byteOffset" : 9760
        },
        {
            "buffer" : 0,
            "byteLength" : 1320,
            "byteOffset" : 11080
        },
        {
            "buffer" : 0,
            "byteLength" : 880,
            "byteOffset" : 12400
        },
        {
            "buffer" : 0,
            "byteLength" : 1128,
            "byteOffset" : 13280
        }
    ],
    "buffers" : [
        {
            "byteLength" : 14408,
            "uri" : "FishV2.bin"
        }
    ]
}
