{
    "asset" : {
        "generator" : "Khronos glTF Blender I/O v1.8.19",
        "version" : "2.0"
    },
    "scene" : 0,
    "scenes" : [
        {
            "name" : "Scene",
            "nodes" : [
                0
            ]
        }
    ],
    "nodes" : [
        {
            "mesh" : 0,
            "name" : "MetalSrapV4"
        }
    ],
    "materials" : [
        {
            "doubleSided" : true,
            "name" : "Part6",
            "pbrMetallicRoughness" : {
                "baseColorFactor" : [
                    0.14160136878490448,
                    0.17236769199371338,
                    0.24619390070438385,
                    1
                ],
                "roughnessFactor" : 0.6181102395057678
            }
        }
    ],
    "meshes" : [
        {
            "name" : "Cylinder.016",
            "primitives" : [
                {
                    "attributes" : {
                        "POSITION" : 0,
                        "NORMAL" : 1,
                        "TEXCOORD_0" : 2
                    },
                    "indices" : 3,
                    "material" : 0
                }
            ]
        }
    ],
    "accessors" : [
        {
            "bufferView" : 0,
            "componentType" : 5126,
            "count" : 908,
            "max" : [
                0.37365075945854187,
                0.08757065236568451,
                0.49995213747024536
            ],
            "min" : [
                -0.3616740107536316,
                -0.045858487486839294,
                -0.2735660672187805
            ],
            "type" : "VEC3"
        },
        {
            "bufferView" : 1,
            "componentType" : 5126,
            "count" : 908,
            "type" : "VEC3"
        },
        {
            "bufferView" : 2,
            "componentType" : 5126,
            "count" : 908,
            "type" : "VEC2"
        },
        {
            "bufferView" : 3,
            "componentType" : 5123,
            "count" : 1404,
            "type" : "SCALAR"
        }
    ],
    "bufferViews" : [
        {
            "buffer" : 0,
            "byteLength" : 10896,
            "byteOffset" : 0
        },
        {
            "buffer" : 0,
            "byteLength" : 10896,
            "byteOffset" : 10896
        },
        {
            "buffer" : 0,
            "byteLength" : 7264,
            "byteOffset" : 21792
        },
        {
            "buffer" : 0,
            "byteLength" : 2808,
            "byteOffset" : 29056
        }
    ],
    "buffers" : [
        {
            "byteLength" : 31864,
            "uri" : "MetalScrapV4.bin"
        }
    ]
}
