{
    "asset" : {
        "generator" : "Khronos glTF Blender I/O v1.8.19",
        "version" : "2.0"
    },
    "scene" : 0,
    "scenes" : [
        {
            "name" : "Scene",
            "nodes" : [
                0
            ]
        }
    ],
    "nodes" : [
        {
            "mesh" : 0,
            "name" : "MetalSrapV3"
        }
    ],
    "materials" : [
        {
            "doubleSided" : true,
            "name" : "Part5",
            "pbrMetallicRoughness" : {
                "baseColorFactor" : [
                    0.1282387524843216,
                    0.03968992084264755,
                    0.013878042809665203,
                    1
                ],
                "roughnessFactor" : 0.712598443031311
            }
        },
        {
            "doubleSided" : true,
            "name" : "Cubes",
            "pbrMetallicRoughness" : {
                "baseColorFactor" : [
                    0.17711040377616882,
                    0.1963779181241989,
                    0.20789793133735657,
                    1
                ],
                "roughnessFactor" : 0.8881889581680298
            }
        }
    ],
    "meshes" : [
        {
            "name" : "Cylinder.012",
            "primitives" : [
                {
                    "attributes" : {
                        "POSITION" : 0,
                        "NORMAL" : 1,
                        "TEXCOORD_0" : 2
                    },
                    "indices" : 3,
                    "material" : 0
                },
                {
                    "attributes" : {
                        "POSITION" : 4,
                        "NORMAL" : 5,
                        "TEXCOORD_0" : 6
                    },
                    "indices" : 7,
                    "material" : 1
                }
            ]
        }
    ],
    "accessors" : [
        {
            "bufferView" : 0,
            "componentType" : 5126,
            "count" : 2160,
            "max" : [
                2.9998598098754883,
                0.7052555680274963,
                1.5187084674835205
            ],
            "min" : [
                -0.700092077255249,
                -0.04395601153373718,
                -1.8845837116241455
            ],
            "type" : "VEC3"
        },
        {
            "bufferView" : 1,
            "componentType" : 5126,
            "count" : 2160,
            "type" : "VEC3"
        },
        {
            "bufferView" : 2,
            "componentType" : 5126,
            "count" : 2160,
            "type" : "VEC2"
        },
        {
            "bufferView" : 3,
            "componentType" : 5123,
            "count" : 3300,
            "type" : "SCALAR"
        },
        {
            "bufferView" : 4,
            "componentType" : 5126,
            "count" : 72,
            "max" : [
                1.8300731182098389,
                0.0882071852684021,
                1.878327488899231
            ],
            "min" : [
                -1.489149808883667,
                -8.940696716308594e-08,
                -2.509641647338867
            ],
            "type" : "VEC3"
        },
        {
            "bufferView" : 5,
            "componentType" : 5126,
            "count" : 72,
            "type" : "VEC3"
        },
        {
            "bufferView" : 6,
            "componentType" : 5126,
            "count" : 72,
            "type" : "VEC2"
        },
        {
            "bufferView" : 7,
            "componentType" : 5123,
            "count" : 108,
            "type" : "SCALAR"
        }
    ],
    "bufferViews" : [
        {
            "buffer" : 0,
            "byteLength" : 25920,
            "byteOffset" : 0
        },
        {
            "buffer" : 0,
            "byteLength" : 25920,
            "byteOffset" : 25920
        },
        {
            "buffer" : 0,
            "byteLength" : 17280,
            "byteOffset" : 51840
        },
        {
            "buffer" : 0,
            "byteLength" : 6600,
            "byteOffset" : 69120
        },
        {
            "buffer" : 0,
            "byteLength" : 864,
            "byteOffset" : 75720
        },
        {
            "buffer" : 0,
            "byteLength" : 864,
            "byteOffset" : 76584
        },
        {
            "buffer" : 0,
            "byteLength" : 576,
            "byteOffset" : 77448
        },
        {
            "buffer" : 0,
            "byteLength" : 216,
            "byteOffset" : 78024
        }
    ],
    "buffers" : [
        {
            "byteLength" : 78240,
            "uri" : "MetalScrapV3.bin"
        }
    ]
}
