{
    "asset" : {
        "generator" : "Khronos glTF Blender I/O v1.8.19",
        "version" : "2.0"
    },
    "scene" : 0,
    "scenes" : [
        {
            "name" : "Scene",
            "nodes" : [
                0
            ]
        }
    ],
    "nodes" : [
        {
            "mesh" : 0,
            "name" : "MetalSrapV2"
        }
    ],
    "materials" : [
        {
            "doubleSided" : true,
            "name" : "Part3",
            "pbrMetallicRoughness" : {
                "baseColorFactor" : [
                    0.024643419310450554,
                    0.03515810891985893,
                    0.02375268004834652,
                    1
                ],
                "roughnessFactor" : 0.9094488620758057
            }
        },
        {
            "doubleSided" : true,
            "name" : "Part4",
            "pbrMetallicRoughness" : {
                "baseColorFactor" : [
                    0.06071845814585686,
                    0.033324435353279114,
                    0.02710876613855362,
                    1
                ],
                "roughnessFactor" : 0.5
            }
        }
    ],
    "meshes" : [
        {
            "name" : "Cylinder.003",
            "primitives" : [
                {
                    "attributes" : {
                        "POSITION" : 0,
                        "NORMAL" : 1,
                        "TEXCOORD_0" : 2
                    },
                    "indices" : 3,
                    "material" : 0
                },
                {
                    "attributes" : {
                        "POSITION" : 4,
                        "NORMAL" : 5,
                        "TEXCOORD_0" : 6
                    },
                    "indices" : 7,
                    "material" : 1
                }
            ]
        }
    ],
    "accessors" : [
        {
            "bufferView" : 0,
            "componentType" : 5126,
            "count" : 458,
            "max" : [
                0.4991615116596222,
                0.15977387130260468,
                0.5645383596420288
            ],
            "min" : [
                -0.4193192720413208,
                0,
                -0.5401759147644043
            ],
            "type" : "VEC3"
        },
        {
            "bufferView" : 1,
            "componentType" : 5126,
            "count" : 458,
            "type" : "VEC3"
        },
        {
            "bufferView" : 2,
            "componentType" : 5126,
            "count" : 458,
            "type" : "VEC2"
        },
        {
            "bufferView" : 3,
            "componentType" : 5123,
            "count" : 768,
            "type" : "SCALAR"
        },
        {
            "bufferView" : 4,
            "componentType" : 5126,
            "count" : 766,
            "max" : [
                0.7967492341995239,
                0.16248458623886108,
                1.093386173248291
            ],
            "min" : [
                -0.19285517930984497,
                -0.03273617476224899,
                -0.6795337200164795
            ],
            "type" : "VEC3"
        },
        {
            "bufferView" : 5,
            "componentType" : 5126,
            "count" : 766,
            "type" : "VEC3"
        },
        {
            "bufferView" : 6,
            "componentType" : 5126,
            "count" : 766,
            "type" : "VEC2"
        },
        {
            "bufferView" : 7,
            "componentType" : 5123,
            "count" : 1464,
            "type" : "SCALAR"
        }
    ],
    "bufferViews" : [
        {
            "buffer" : 0,
            "byteLength" : 5496,
            "byteOffset" : 0
        },
        {
            "buffer" : 0,
            "byteLength" : 5496,
            "byteOffset" : 5496
        },
        {
            "buffer" : 0,
            "byteLength" : 3664,
            "byteOffset" : 10992
        },
        {
            "buffer" : 0,
            "byteLength" : 1536,
            "byteOffset" : 14656
        },
        {
            "buffer" : 0,
            "byteLength" : 9192,
            "byteOffset" : 16192
        },
        {
            "buffer" : 0,
            "byteLength" : 9192,
            "byteOffset" : 25384
        },
        {
            "buffer" : 0,
            "byteLength" : 6128,
            "byteOffset" : 34576
        },
        {
            "buffer" : 0,
            "byteLength" : 2928,
            "byteOffset" : 40704
        }
    ],
    "buffers" : [
        {
            "byteLength" : 43632,
            "uri" : "MetalScrapV2.bin"
        }
    ]
}
