{
    "asset" : {
        "generator" : "Khronos glTF Blender I/O v1.8.19",
        "version" : "2.0"
    },
    "scene" : 0,
    "scenes" : [
        {
            "name" : "Scene",
            "nodes" : [
                0
            ]
        }
    ],
    "nodes" : [
        {
            "mesh" : 0,
            "name" : "MetalSrapV1"
        }
    ],
    "materials" : [
        {
            "doubleSided" : true,
            "name" : "Part1",
            "pbrMetallicRoughness" : {
                "baseColorFactor" : [
                    0.13373041152954102,
                    0.14239470660686493,
                    0.11145558953285217,
                    1
                ],
                "roughnessFactor" : 0.7677165269851685
            }
        },
        {
            "doubleSided" : true,
            "name" : "Part2",
            "pbrMetallicRoughness" : {
                "baseColorFactor" : [
                    0.16794510185718536,
                    0.041017159819602966,
                    0.018073832616209984,
                    1
                ],
                "roughnessFactor" : 0.8622047305107117
            }
        },
        {
            "doubleSided" : true,
            "name" : "Cubes",
            "pbrMetallicRoughness" : {
                "baseColorFactor" : [
                    0.17711040377616882,
                    0.1963779181241989,
                    0.20789793133735657,
                    1
                ],
                "roughnessFactor" : 0.8881889581680298
            }
        }
    ],
    "meshes" : [
        {
            "name" : "Cube.004",
            "primitives" : [
                {
                    "attributes" : {
                        "POSITION" : 0,
                        "NORMAL" : 1,
                        "TEXCOORD_0" : 2
                    },
                    "indices" : 3,
                    "material" : 0
                },
                {
                    "attributes" : {
                        "POSITION" : 4,
                        "NORMAL" : 5,
                        "TEXCOORD_0" : 6
                    },
                    "indices" : 7,
                    "material" : 1
                },
                {
                    "attributes" : {
                        "POSITION" : 8,
                        "NORMAL" : 9,
                        "TEXCOORD_0" : 10
                    },
                    "indices" : 11,
                    "material" : 2
                }
            ]
        }
    ],
    "accessors" : [
        {
            "bufferView" : 0,
            "componentType" : 5126,
            "count" : 86,
            "max" : [
                0.3965838849544525,
                0.04588915407657623,
                0.3405068814754486
            ],
            "min" : [
                -0.34139910340309143,
                0,
                -0.3754177689552307
            ],
            "type" : "VEC3"
        },
        {
            "bufferView" : 1,
            "componentType" : 5126,
            "count" : 86,
            "type" : "VEC3"
        },
        {
            "bufferView" : 2,
            "componentType" : 5126,
            "count" : 86,
            "type" : "VEC2"
        },
        {
            "bufferView" : 3,
            "componentType" : 5123,
            "count" : 180,
            "type" : "SCALAR"
        },
        {
            "bufferView" : 4,
            "componentType" : 5126,
            "count" : 208,
            "max" : [
                0.05795406550168991,
                0.09196611493825912,
                0.16114196181297302
            ],
            "min" : [
                -0.4943663477897644,
                2.4866312742233276e-05,
                -0.0640706717967987
            ],
            "type" : "VEC3"
        },
        {
            "bufferView" : 5,
            "componentType" : 5126,
            "count" : 208,
            "type" : "VEC3"
        },
        {
            "bufferView" : 6,
            "componentType" : 5126,
            "count" : 208,
            "type" : "VEC2"
        },
        {
            "bufferView" : 7,
            "componentType" : 5123,
            "count" : 324,
            "type" : "SCALAR"
        },
        {
            "bufferView" : 8,
            "componentType" : 5126,
            "count" : 48,
            "max" : [
                0.047053322196006775,
                0.01801438257098198,
                -0.19961436092853546
            ],
            "min" : [
                -0.6716140508651733,
                0,
                -0.7107090950012207
            ],
            "type" : "VEC3"
        },
        {
            "bufferView" : 9,
            "componentType" : 5126,
            "count" : 48,
            "type" : "VEC3"
        },
        {
            "bufferView" : 10,
            "componentType" : 5126,
            "count" : 48,
            "type" : "VEC2"
        },
        {
            "bufferView" : 11,
            "componentType" : 5123,
            "count" : 72,
            "type" : "SCALAR"
        }
    ],
    "bufferViews" : [
        {
            "buffer" : 0,
            "byteLength" : 1032,
            "byteOffset" : 0
        },
        {
            "buffer" : 0,
            "byteLength" : 1032,
            "byteOffset" : 1032
        },
        {
            "buffer" : 0,
            "byteLength" : 688,
            "byteOffset" : 2064
        },
        {
            "buffer" : 0,
            "byteLength" : 360,
            "byteOffset" : 2752
        },
        {
            "buffer" : 0,
            "byteLength" : 2496,
            "byteOffset" : 3112
        },
        {
            "buffer" : 0,
            "byteLength" : 2496,
            "byteOffset" : 5608
        },
        {
            "buffer" : 0,
            "byteLength" : 1664,
            "byteOffset" : 8104
        },
        {
            "buffer" : 0,
            "byteLength" : 648,
            "byteOffset" : 9768
        },
        {
            "buffer" : 0,
            "byteLength" : 576,
            "byteOffset" : 10416
        },
        {
            "buffer" : 0,
            "byteLength" : 576,
            "byteOffset" : 10992
        },
        {
            "buffer" : 0,
            "byteLength" : 384,
            "byteOffset" : 11568
        },
        {
            "buffer" : 0,
            "byteLength" : 144,
            "byteOffset" : 11952
        }
    ],
    "buffers" : [
        {
            "byteLength" : 12096,
            "uri" : "MetalScrapV1.bin"
        }
    ]
}
