{
    "asset" : {
        "generator" : "Khronos glTF Blender I/O v3.2.43",
        "version" : "2.0"
    },
    "scene" : 0,
    "scenes" : [
        {
            "name" : "Scene",
            "nodes" : [
                0,
                1,
                2,
                3,
                4,
                5
            ]
        }
    ],
    "nodes" : [
        {
            "mesh" : 0,
            "name" : "RollerWheels",
            "rotation" : [
                0,
                -0.7071068286895752,
                0,
                0.7071068286895752
            ],
            "translation" : [
                0,
                1,
                0
            ]
        },
        {
            "mesh" : 1,
            "name" : "RollerBody"
        },
        {
            "mesh" : 2,
            "name" : "RollerEyes",
            "rotation" : [
                0,
                -0.7071068286895752,
                0,
                0.7071068286895752
            ],
            "translation" : [
                0,
                1,
                0
            ]
        },
        {
            "mesh" : 3,
            "name" : "RollerCannon",
            "translation" : [
                0,
                0.7735407948493958,
                -0.003506869077682495
            ]
        },
        {
            "mesh" : 4,
            "name" : "RollerConnector",
            "translation" : [
                0,
                0.6156401634216309,
                0.007508665323257446
            ]
        },
        {
            "mesh" : 5,
            "name" : "Cylinder",
            "rotation" : [
                0.7071068286895752,
                0,
                0,
                0.7071068286895752
            ],
            "translation" : [
                0,
                0.7110586762428284,
                0.13799160718917847
            ]
        }
    ],
    "materials" : [
        {
            "doubleSided" : true,
            "name" : "Drill Primary",
            "pbrMetallicRoughness" : {
                "baseColorFactor" : [
                    0.03967934846878052,
                    0.03967934846878052,
                    0.03967934846878052,
                    1
                ],
                "metallicFactor" : 0,
                "roughnessFactor" : 0.5
            }
        },
        {
            "doubleSided" : true,
            "name" : "Roller Secondary",
            "pbrMetallicRoughness" : {
                "baseColorFactor" : [
                    0.11541363596916199,
                    0.26976248621940613,
                    0.8000000715255737,
                    1
                ],
                "metallicFactor" : 0,
                "roughnessFactor" : 0.5
            }
        }
    ],
    "meshes" : [
        {
            "name" : "Cube.001",
            "primitives" : [
                {
                    "attributes" : {
                        "POSITION" : 0,
                        "NORMAL" : 1,
                        "TEXCOORD_0" : 2
                    },
                    "indices" : 3,
                    "material" : 0
                },
                {
                    "attributes" : {
                        "POSITION" : 4,
                        "NORMAL" : 5,
                        "TEXCOORD_0" : 6
                    },
                    "indices" : 7,
                    "material" : 1
                }
            ]
        },
        {
            "name" : "Cube.002",
            "primitives" : [
                {
                    "attributes" : {
                        "POSITION" : 8,
                        "NORMAL" : 9,
                        "TEXCOORD_0" : 10
                    },
                    "indices" : 11,
                    "material" : 0
                }
            ]
        },
        {
            "name" : "Cube.003",
            "primitives" : [
                {
                    "attributes" : {
                        "POSITION" : 12,
                        "NORMAL" : 13,
                        "TEXCOORD_0" : 14
                    },
                    "indices" : 15,
                    "material" : 1
                }
            ]
        },
        {
            "name" : "Cube.005",
            "primitives" : [
                {
                    "attributes" : {
                        "POSITION" : 16,
                        "NORMAL" : 17,
                        "TEXCOORD_0" : 18
                    },
                    "indices" : 19,
                    "material" : 1
                }
            ]
        },
        {
            "name" : "Cylinder.007",
            "primitives" : [
                {
                    "attributes" : {
                        "POSITION" : 20,
                        "NORMAL" : 21,
                        "TEXCOORD_0" : 22
                    },
                    "indices" : 23,
                    "material" : 0
                },
                {
                    "attributes" : {
                        "POSITION" : 24,
                        "NORMAL" : 25,
                        "TEXCOORD_0" : 26
                    },
                    "indices" : 27,
                    "material" : 1
                }
            ]
        },
        {
            "name" : "Cylinder.009",
            "primitives" : [
                {
                    "attributes" : {
                        "POSITION" : 28,
                        "NORMAL" : 29,
                        "TEXCOORD_0" : 30
                    },
                    "indices" : 31,
                    "material" : 1
                }
            ]
        }
    ],
    "accessors" : [
        {
            "bufferView" : 0,
            "componentType" : 5126,
            "count" : 128,
            "max" : [
                0.5367013216018677,
                -0.41141995787620544,
                0.6219912171363831
            ],
            "min" : [
                -0.5367013216018677,
                -0.9737492799758911,
                -0.6219912171363831
            ],
            "type" : "VEC3"
        },
        {
            "bufferView" : 1,
            "componentType" : 5126,
            "count" : 128,
            "type" : "VEC3"
        },
        {
            "bufferView" : 2,
            "componentType" : 5126,
            "count" : 128,
            "type" : "VEC2"
        },
        {
            "bufferView" : 3,
            "componentType" : 5123,
            "count" : 204,
            "type" : "SCALAR"
        },
        {
            "bufferView" : 4,
            "componentType" : 5126,
            "count" : 228,
            "max" : [
                0.5873969793319702,
                -0.38516923785209656,
                0.676329493522644
            ],
            "min" : [
                -0.5873969793319702,
                -1,
                -0.676329493522644
            ],
            "type" : "VEC3"
        },
        {
            "bufferView" : 5,
            "componentType" : 5126,
            "count" : 228,
            "type" : "VEC3"
        },
        {
            "bufferView" : 6,
            "componentType" : 5126,
            "count" : 228,
            "type" : "VEC2"
        },
        {
            "bufferView" : 7,
            "componentType" : 5123,
            "count" : 348,
            "type" : "SCALAR"
        },
        {
            "bufferView" : 8,
            "componentType" : 5126,
            "count" : 42,
            "max" : [
                0.41159069538116455,
                0.5344087481498718,
                0.6125631928443909
            ],
            "min" : [
                -0.41159069538116455,
                0.0827074646949768,
                -0.6125631928443909
            ],
            "type" : "VEC3"
        },
        {
            "bufferView" : 9,
            "componentType" : 5126,
            "count" : 42,
            "type" : "VEC3"
        },
        {
            "bufferView" : 10,
            "componentType" : 5126,
            "count" : 42,
            "type" : "VEC2"
        },
        {
            "bufferView" : 11,
            "componentType" : 5123,
            "count" : 72,
            "type" : "SCALAR"
        },
        {
            "bufferView" : 12,
            "componentType" : 5126,
            "count" : 48,
            "max" : [
                0.6157065033912659,
                -0.4686664342880249,
                0.25684884190559387
            ],
            "min" : [
                0.43458032608032227,
                -0.6497926115989685,
                -0.25684884190559387
            ],
            "type" : "VEC3"
        },
        {
            "bufferView" : 13,
            "componentType" : 5126,
            "count" : 48,
            "type" : "VEC3"
        },
        {
            "bufferView" : 14,
            "componentType" : 5126,
            "count" : 48,
            "type" : "VEC2"
        },
        {
            "bufferView" : 15,
            "componentType" : 5123,
            "count" : 72,
            "type" : "SCALAR"
        },
        {
            "bufferView" : 16,
            "componentType" : 5126,
            "count" : 166,
            "max" : [
                0.12676937878131866,
                0.04717473313212395,
                0.11784214526414871
            ],
            "min" : [
                -0.12676937878131866,
                -0.2037307769060135,
                -0.11784214526414871
            ],
            "type" : "VEC3"
        },
        {
            "bufferView" : 17,
            "componentType" : 5126,
            "count" : 166,
            "type" : "VEC3"
        },
        {
            "bufferView" : 18,
            "componentType" : 5126,
            "count" : 166,
            "type" : "VEC2"
        },
        {
            "bufferView" : 19,
            "componentType" : 5123,
            "count" : 240,
            "type" : "SCALAR"
        },
        {
            "bufferView" : 20,
            "componentType" : 5126,
            "count" : 132,
            "max" : [
                0.35629573464393616,
                -0.023625725880265236,
                0.35629573464393616
            ],
            "min" : [
                -0.35629573464393616,
                -0.11924415826797485,
                -0.35629573464393616
            ],
            "type" : "VEC3"
        },
        {
            "bufferView" : 21,
            "componentType" : 5126,
            "count" : 132,
            "type" : "VEC3"
        },
        {
            "bufferView" : 22,
            "componentType" : 5126,
            "count" : 132,
            "type" : "VEC2"
        },
        {
            "bufferView" : 23,
            "componentType" : 5123,
            "count" : 276,
            "type" : "SCALAR"
        },
        {
            "bufferView" : 24,
            "componentType" : 5126,
            "count" : 162,
            "max" : [
                0.35629573464393616,
                -0.023625725880265236,
                0.35629573464393616
            ],
            "min" : [
                -0.35629573464393616,
                -0.11924415826797485,
                -0.35629573464393616
            ],
            "type" : "VEC3"
        },
        {
            "bufferView" : 25,
            "componentType" : 5126,
            "count" : 162,
            "type" : "VEC3"
        },
        {
            "bufferView" : 26,
            "componentType" : 5126,
            "count" : 162,
            "type" : "VEC2"
        },
        {
            "bufferView" : 27,
            "componentType" : 5123,
            "count" : 288,
            "type" : "SCALAR"
        },
        {
            "bufferView" : 28,
            "componentType" : 5126,
            "count" : 34,
            "max" : [
                0.04519559070467949,
                0.04519559070467949,
                0.04519559070467949
            ],
            "min" : [
                -0.04519559070467949,
                -0.04519559070467949,
                -0.04519559070467949
            ],
            "type" : "VEC3"
        },
        {
            "bufferView" : 29,
            "componentType" : 5126,
            "count" : 34,
            "type" : "VEC3"
        },
        {
            "bufferView" : 30,
            "componentType" : 5126,
            "count" : 34,
            "type" : "VEC2"
        },
        {
            "bufferView" : 31,
            "componentType" : 5123,
            "count" : 84,
            "type" : "SCALAR"
        }
    ],
    "bufferViews" : [
        {
            "buffer" : 0,
            "byteLength" : 1536,
            "byteOffset" : 0
        },
        {
            "buffer" : 0,
            "byteLength" : 1536,
            "byteOffset" : 1536
        },
        {
            "buffer" : 0,
            "byteLength" : 1024,
            "byteOffset" : 3072
        },
        {
            "buffer" : 0,
            "byteLength" : 408,
            "byteOffset" : 4096
        },
        {
            "buffer" : 0,
            "byteLength" : 2736,
            "byteOffset" : 4504
        },
        {
            "buffer" : 0,
            "byteLength" : 2736,
            "byteOffset" : 7240
        },
        {
            "buffer" : 0,
            "byteLength" : 1824,
            "byteOffset" : 9976
        },
        {
            "buffer" : 0,
            "byteLength" : 696,
            "byteOffset" : 11800
        },
        {
            "buffer" : 0,
            "byteLength" : 504,
            "byteOffset" : 12496
        },
        {
            "buffer" : 0,
            "byteLength" : 504,
            "byteOffset" : 13000
        },
        {
            "buffer" : 0,
            "byteLength" : 336,
            "byteOffset" : 13504
        },
        {
            "buffer" : 0,
            "byteLength" : 144,
            "byteOffset" : 13840
        },
        {
            "buffer" : 0,
            "byteLength" : 576,
            "byteOffset" : 13984
        },
        {
            "buffer" : 0,
            "byteLength" : 576,
            "byteOffset" : 14560
        },
        {
            "buffer" : 0,
            "byteLength" : 384,
            "byteOffset" : 15136
        },
        {
            "buffer" : 0,
            "byteLength" : 144,
            "byteOffset" : 15520
        },
        {
            "buffer" : 0,
            "byteLength" : 1992,
            "byteOffset" : 15664
        },
        {
            "buffer" : 0,
            "byteLength" : 1992,
            "byteOffset" : 17656
        },
        {
            "buffer" : 0,
            "byteLength" : 1328,
            "byteOffset" : 19648
        },
        {
            "buffer" : 0,
            "byteLength" : 480,
            "byteOffset" : 20976
        },
        {
            "buffer" : 0,
            "byteLength" : 1584,
            "byteOffset" : 21456
        },
        {
            "buffer" : 0,
            "byteLength" : 1584,
            "byteOffset" : 23040
        },
        {
            "buffer" : 0,
            "byteLength" : 1056,
            "byteOffset" : 24624
        },
        {
            "buffer" : 0,
            "byteLength" : 552,
            "byteOffset" : 25680
        },
        {
            "buffer" : 0,
            "byteLength" : 1944,
            "byteOffset" : 26232
        },
        {
            "buffer" : 0,
            "byteLength" : 1944,
            "byteOffset" : 28176
        },
        {
            "buffer" : 0,
            "byteLength" : 1296,
            "byteOffset" : 30120
        },
        {
            "buffer" : 0,
            "byteLength" : 576,
            "byteOffset" : 31416
        },
        {
            "buffer" : 0,
            "byteLength" : 408,
            "byteOffset" : 31992
        },
        {
            "buffer" : 0,
            "byteLength" : 408,
            "byteOffset" : 32400
        },
        {
            "buffer" : 0,
            "byteLength" : 272,
            "byteOffset" : 32808
        },
        {
            "buffer" : 0,
            "byteLength" : 168,
            "byteOffset" : 33080
        }
    ],
    "buffers" : [
        {
            "byteLength" : 33248,
            "uri" : "Roller.bin"
        }
    ]
}
