{
    "asset" : {
        "generator" : "Khronos glTF Blender I/O v1.8.19",
        "version" : "2.0"
    },
    "scene" : 0,
    "scenes" : [
        {
            "name" : "Scene",
            "nodes" : [
                0
            ]
        }
    ],
    "nodes" : [
        {
            "mesh" : 0,
            "name" : "StonePillarV1"
        }
    ],
    "materials" : [
        {
            "doubleSided" : true,
            "name" : "StoneC4",
            "pbrMetallicRoughness" : {
                "baseColorFactor" : [
                    0.13898058235645294,
                    0.2264261096715927,
                    0.3343231976032257,
                    1
                ],
                "metallicFactor" : 0,
                "roughnessFactor" : 0.4000000059604645
            }
        },
        {
            "doubleSided" : true,
            "name" : "StoneC2",
            "pbrMetallicRoughness" : {
                "baseColorFactor" : [
                    0.18070824444293976,
                    0.2473224252462387,
                    0.29568904638290405,
                    1
                ],
                "metallicFactor" : 0,
                "roughnessFactor" : 0.5
            }
        },
        {
            "doubleSided" : true,
            "name" : "StoneC1",
            "pbrMetallicRoughness" : {
                "baseColorFactor" : [
                    0.23994414508342743,
                    0.2751571536064148,
                    0.3981030583381653,
                    1
                ],
                "metallicFactor" : 0,
                "roughnessFactor" : 0.4000000059604645
            }
        }
    ],
    "meshes" : [
        {
            "name" : "Cube.011",
            "primitives" : [
                {
                    "attributes" : {
                        "POSITION" : 0,
                        "NORMAL" : 1,
                        "TEXCOORD_0" : 2
                    },
                    "indices" : 3,
                    "material" : 0
                },
                {
                    "attributes" : {
                        "POSITION" : 4,
                        "NORMAL" : 5,
                        "TEXCOORD_0" : 6
                    },
                    "indices" : 7,
                    "material" : 1
                },
                {
                    "attributes" : {
                        "POSITION" : 8,
                        "NORMAL" : 9,
                        "TEXCOORD_0" : 10
                    },
                    "indices" : 11,
                    "material" : 2
                }
            ]
        }
    ],
    "accessors" : [
        {
            "bufferView" : 0,
            "componentType" : 5126,
            "count" : 513,
            "max" : [
                0.21059556305408478,
                0.7331447601318359,
                0.21615110337734222
            ],
            "min" : [
                -0.2512417435646057,
                0,
                -0.2482593059539795
            ],
            "type" : "VEC3"
        },
        {
            "bufferView" : 1,
            "componentType" : 5126,
            "count" : 513,
            "type" : "VEC3"
        },
        {
            "bufferView" : 2,
            "componentType" : 5126,
            "count" : 513,
            "type" : "VEC2"
        },
        {
            "bufferView" : 3,
            "componentType" : 5123,
            "count" : 1911,
            "type" : "SCALAR"
        },
        {
            "bufferView" : 4,
            "componentType" : 5126,
            "count" : 168,
            "max" : [
                0.14710599184036255,
                0.7427842020988464,
                0.1893080174922943
            ],
            "min" : [
                -0.1497887521982193,
                0.18664813041687012,
                -0.15093401074409485
            ],
            "type" : "VEC3"
        },
        {
            "bufferView" : 5,
            "componentType" : 5126,
            "count" : 168,
            "type" : "VEC3"
        },
        {
            "bufferView" : 6,
            "componentType" : 5126,
            "count" : 168,
            "type" : "VEC2"
        },
        {
            "bufferView" : 7,
            "componentType" : 5123,
            "count" : 639,
            "type" : "SCALAR"
        },
        {
            "bufferView" : 8,
            "componentType" : 5126,
            "count" : 179,
            "max" : [
                0.07410129904747009,
                0.8830234408378601,
                0.14117023348808289
            ],
            "min" : [
                -0.07591556012630463,
                0.7084476947784424,
                -0.02846253104507923
            ],
            "type" : "VEC3"
        },
        {
            "bufferView" : 9,
            "componentType" : 5126,
            "count" : 179,
            "type" : "VEC3"
        },
        {
            "bufferView" : 10,
            "componentType" : 5126,
            "count" : 179,
            "type" : "VEC2"
        },
        {
            "bufferView" : 11,
            "componentType" : 5123,
            "count" : 684,
            "type" : "SCALAR"
        }
    ],
    "bufferViews" : [
        {
            "buffer" : 0,
            "byteLength" : 6156,
            "byteOffset" : 0
        },
        {
            "buffer" : 0,
            "byteLength" : 6156,
            "byteOffset" : 6156
        },
        {
            "buffer" : 0,
            "byteLength" : 4104,
            "byteOffset" : 12312
        },
        {
            "buffer" : 0,
            "byteLength" : 3822,
            "byteOffset" : 16416
        },
        {
            "buffer" : 0,
            "byteLength" : 2016,
            "byteOffset" : 20240
        },
        {
            "buffer" : 0,
            "byteLength" : 2016,
            "byteOffset" : 22256
        },
        {
            "buffer" : 0,
            "byteLength" : 1344,
            "byteOffset" : 24272
        },
        {
            "buffer" : 0,
            "byteLength" : 1278,
            "byteOffset" : 25616
        },
        {
            "buffer" : 0,
            "byteLength" : 2148,
            "byteOffset" : 26896
        },
        {
            "buffer" : 0,
            "byteLength" : 2148,
            "byteOffset" : 29044
        },
        {
            "buffer" : 0,
            "byteLength" : 1432,
            "byteOffset" : 31192
        },
        {
            "buffer" : 0,
            "byteLength" : 1368,
            "byteOffset" : 32624
        }
    ],
    "buffers" : [
        {
            "byteLength" : 33992,
            "uri" : "StonePillarV1.bin"
        }
    ]
}
