{
    "asset" : {
        "generator" : "Khronos glTF Blender I/O v1.8.19",
        "version" : "2.0"
    },
    "scene" : 0,
    "scenes" : [
        {
            "name" : "Scene",
            "nodes" : [
                0
            ]
        }
    ],
    "nodes" : [
        {
            "mesh" : 0,
            "name" : "StonePillarV3"
        }
    ],
    "materials" : [
        {
            "doubleSided" : true,
            "name" : "StoneC1",
            "pbrMetallicRoughness" : {
                "baseColorFactor" : [
                    0.23994414508342743,
                    0.2751571536064148,
                    0.3981030583381653,
                    1
                ],
                "metallicFactor" : 0,
                "roughnessFactor" : 0.4000000059604645
            }
        },
        {
            "doubleSided" : true,
            "name" : "StoneC4",
            "pbrMetallicRoughness" : {
                "baseColorFactor" : [
                    0.13898058235645294,
                    0.2264261096715927,
                    0.3343231976032257,
                    1
                ],
                "metallicFactor" : 0,
                "roughnessFactor" : 0.4000000059604645
            }
        },
        {
            "doubleSided" : true,
            "name" : "StoneC2",
            "pbrMetallicRoughness" : {
                "baseColorFactor" : [
                    0.18070824444293976,
                    0.2473224252462387,
                    0.29568904638290405,
                    1
                ],
                "metallicFactor" : 0,
                "roughnessFactor" : 0.5
            }
        }
    ],
    "meshes" : [
        {
            "name" : "Cube.020",
            "primitives" : [
                {
                    "attributes" : {
                        "POSITION" : 0,
                        "NORMAL" : 1,
                        "TEXCOORD_0" : 2
                    },
                    "indices" : 3,
                    "material" : 0
                },
                {
                    "attributes" : {
                        "POSITION" : 4,
                        "NORMAL" : 5,
                        "TEXCOORD_0" : 6
                    },
                    "indices" : 7,
                    "material" : 1
                },
                {
                    "attributes" : {
                        "POSITION" : 8,
                        "NORMAL" : 9,
                        "TEXCOORD_0" : 10
                    },
                    "indices" : 11,
                    "material" : 2
                }
            ]
        }
    ],
    "accessors" : [
        {
            "bufferView" : 0,
            "componentType" : 5126,
            "count" : 83,
            "max" : [
                0.18894851207733154,
                0.41191503405570984,
                0.2526310384273529
            ],
            "min" : [
                -0.21219196915626526,
                0.18174713850021362,
                -0.21433646976947784
            ],
            "type" : "VEC3"
        },
        {
            "bufferView" : 1,
            "componentType" : 5126,
            "count" : 83,
            "type" : "VEC3"
        },
        {
            "bufferView" : 2,
            "componentType" : 5126,
            "count" : 83,
            "type" : "VEC2"
        },
        {
            "bufferView" : 3,
            "componentType" : 5123,
            "count" : 318,
            "type" : "SCALAR"
        },
        {
            "bufferView" : 4,
            "componentType" : 5126,
            "count" : 519,
            "max" : [
                0.1786198765039444,
                0.6855027079582214,
                0.18139679729938507
            ],
            "min" : [
                -0.21312272548675537,
                -1.4901161193847656e-08,
                -0.21252836287021637
            ],
            "type" : "VEC3"
        },
        {
            "bufferView" : 5,
            "componentType" : 5126,
            "count" : 519,
            "type" : "VEC3"
        },
        {
            "bufferView" : 6,
            "componentType" : 5126,
            "count" : 519,
            "type" : "VEC2"
        },
        {
            "bufferView" : 7,
            "componentType" : 5123,
            "count" : 2160,
            "type" : "SCALAR"
        },
        {
            "bufferView" : 8,
            "componentType" : 5126,
            "count" : 218,
            "max" : [
                0.11740532517433167,
                0.9140861630439758,
                0.1457047164440155
            ],
            "min" : [
                -0.11338969320058823,
                0.6104470491409302,
                -0.12560467422008514
            ],
            "type" : "VEC3"
        },
        {
            "bufferView" : 9,
            "componentType" : 5126,
            "count" : 218,
            "type" : "VEC3"
        },
        {
            "bufferView" : 10,
            "componentType" : 5126,
            "count" : 218,
            "type" : "VEC2"
        },
        {
            "bufferView" : 11,
            "componentType" : 5123,
            "count" : 864,
            "type" : "SCALAR"
        }
    ],
    "bufferViews" : [
        {
            "buffer" : 0,
            "byteLength" : 996,
            "byteOffset" : 0
        },
        {
            "buffer" : 0,
            "byteLength" : 996,
            "byteOffset" : 996
        },
        {
            "buffer" : 0,
            "byteLength" : 664,
            "byteOffset" : 1992
        },
        {
            "buffer" : 0,
            "byteLength" : 636,
            "byteOffset" : 2656
        },
        {
            "buffer" : 0,
            "byteLength" : 6228,
            "byteOffset" : 3292
        },
        {
            "buffer" : 0,
            "byteLength" : 6228,
            "byteOffset" : 9520
        },
        {
            "buffer" : 0,
            "byteLength" : 4152,
            "byteOffset" : 15748
        },
        {
            "buffer" : 0,
            "byteLength" : 4320,
            "byteOffset" : 19900
        },
        {
            "buffer" : 0,
            "byteLength" : 2616,
            "byteOffset" : 24220
        },
        {
            "buffer" : 0,
            "byteLength" : 2616,
            "byteOffset" : 26836
        },
        {
            "buffer" : 0,
            "byteLength" : 1744,
            "byteOffset" : 29452
        },
        {
            "buffer" : 0,
            "byteLength" : 1728,
            "byteOffset" : 31196
        }
    ],
    "buffers" : [
        {
            "byteLength" : 32924,
            "uri" : "StonePillarV3.bin"
        }
    ]
}
