{
    "asset" : {
        "generator" : "Khronos glTF Blender I/O v1.8.19",
        "version" : "2.0"
    },
    "scene" : 0,
    "scenes" : [
        {
            "name" : "Scene",
            "nodes" : [
                0
            ]
        }
    ],
    "nodes" : [
        {
            "mesh" : 0,
            "name" : "StonePillarV2"
        }
    ],
    "materials" : [
        {
            "doubleSided" : true,
            "name" : "StoneC2",
            "pbrMetallicRoughness" : {
                "baseColorFactor" : [
                    0.18070824444293976,
                    0.2473224252462387,
                    0.29568904638290405,
                    1
                ],
                "metallicFactor" : 0,
                "roughnessFactor" : 0.5
            }
        },
        {
            "doubleSided" : true,
            "name" : "StoneC4",
            "pbrMetallicRoughness" : {
                "baseColorFactor" : [
                    0.13898058235645294,
                    0.2264261096715927,
                    0.3343231976032257,
                    1
                ],
                "metallicFactor" : 0,
                "roughnessFactor" : 0.4000000059604645
            }
        },
        {
            "doubleSided" : true,
            "name" : "StoneC1",
            "pbrMetallicRoughness" : {
                "baseColorFactor" : [
                    0.23994414508342743,
                    0.2751571536064148,
                    0.3981030583381653,
                    1
                ],
                "metallicFactor" : 0,
                "roughnessFactor" : 0.4000000059604645
            }
        }
    ],
    "meshes" : [
        {
            "name" : "Cube.019",
            "primitives" : [
                {
                    "attributes" : {
                        "POSITION" : 0,
                        "NORMAL" : 1,
                        "TEXCOORD_0" : 2
                    },
                    "indices" : 3,
                    "material" : 0
                },
                {
                    "attributes" : {
                        "POSITION" : 4,
                        "NORMAL" : 5,
                        "TEXCOORD_0" : 6
                    },
                    "indices" : 7,
                    "material" : 1
                },
                {
                    "attributes" : {
                        "POSITION" : 8,
                        "NORMAL" : 9,
                        "TEXCOORD_0" : 10
                    },
                    "indices" : 11,
                    "material" : 2
                }
            ]
        }
    ],
    "accessors" : [
        {
            "bufferView" : 0,
            "componentType" : 5126,
            "count" : 298,
            "max" : [
                0.14107930660247803,
                0.977697491645813,
                0.2301677167415619
            ],
            "min" : [
                -0.23079413175582886,
                0.1435760259628296,
                -0.1753157377243042
            ],
            "type" : "VEC3"
        },
        {
            "bufferView" : 1,
            "componentType" : 5126,
            "count" : 298,
            "type" : "VEC3"
        },
        {
            "bufferView" : 2,
            "componentType" : 5126,
            "count" : 298,
            "type" : "VEC2"
        },
        {
            "bufferView" : 3,
            "componentType" : 5123,
            "count" : 1092,
            "type" : "SCALAR"
        },
        {
            "bufferView" : 4,
            "componentType" : 5126,
            "count" : 223,
            "max" : [
                0.2775403559207916,
                0.2350524663925171,
                0.30790966749191284
            ],
            "min" : [
                -0.3311510384082794,
                0,
                -0.3041730523109436
            ],
            "type" : "VEC3"
        },
        {
            "bufferView" : 5,
            "componentType" : 5126,
            "count" : 223,
            "type" : "VEC3"
        },
        {
            "bufferView" : 6,
            "componentType" : 5126,
            "count" : 223,
            "type" : "VEC2"
        },
        {
            "bufferView" : 7,
            "componentType" : 5123,
            "count" : 864,
            "type" : "SCALAR"
        },
        {
            "bufferView" : 8,
            "componentType" : 5126,
            "count" : 160,
            "max" : [
                0.05154598504304886,
                1.108660101890564,
                0.20407253503799438
            ],
            "min" : [
                -0.1757849156856537,
                0.9227753281593323,
                -0.03926924616098404
            ],
            "type" : "VEC3"
        },
        {
            "bufferView" : 9,
            "componentType" : 5126,
            "count" : 160,
            "type" : "VEC3"
        },
        {
            "bufferView" : 10,
            "componentType" : 5126,
            "count" : 160,
            "type" : "VEC2"
        },
        {
            "bufferView" : 11,
            "componentType" : 5123,
            "count" : 564,
            "type" : "SCALAR"
        }
    ],
    "bufferViews" : [
        {
            "buffer" : 0,
            "byteLength" : 3576,
            "byteOffset" : 0
        },
        {
            "buffer" : 0,
            "byteLength" : 3576,
            "byteOffset" : 3576
        },
        {
            "buffer" : 0,
            "byteLength" : 2384,
            "byteOffset" : 7152
        },
        {
            "buffer" : 0,
            "byteLength" : 2184,
            "byteOffset" : 9536
        },
        {
            "buffer" : 0,
            "byteLength" : 2676,
            "byteOffset" : 11720
        },
        {
            "buffer" : 0,
            "byteLength" : 2676,
            "byteOffset" : 14396
        },
        {
            "buffer" : 0,
            "byteLength" : 1784,
            "byteOffset" : 17072
        },
        {
            "buffer" : 0,
            "byteLength" : 1728,
            "byteOffset" : 18856
        },
        {
            "buffer" : 0,
            "byteLength" : 1920,
            "byteOffset" : 20584
        },
        {
            "buffer" : 0,
            "byteLength" : 1920,
            "byteOffset" : 22504
        },
        {
            "buffer" : 0,
            "byteLength" : 1280,
            "byteOffset" : 24424
        },
        {
            "buffer" : 0,
            "byteLength" : 1128,
            "byteOffset" : 25704
        }
    ],
    "buffers" : [
        {
            "byteLength" : 26832,
            "uri" : "StonePillarV2.bin"
        }
    ]
}
