{
    "asset" : {
        "generator" : "Khronos glTF Blender I/O v1.8.19",
        "version" : "2.0"
    },
    "scene" : 0,
    "scenes" : [
        {
            "name" : "Scene",
            "nodes" : [
                0
            ]
        }
    ],
    "nodes" : [
        {
            "mesh" : 0,
            "name" : "TreasureChaseTop",
            "translation" : [
                0,
                0.22034013271331787,
                -0.1740591824054718
            ]
        }
    ],
    "materials" : [
        {
            "doubleSided" : true,
            "name" : "TreasureWood",
            "pbrMetallicRoughness" : {
                "baseColorFactor" : [
                    0.06071936711668968,
                    0.03470872342586517,
                    0.029354367405176163,
                    1
                ],
                "metallicFactor" : 0,
                "roughnessFactor" : 0.8149605989456177
            }
        },
        {
            "doubleSided" : true,
            "name" : "TreasureMetal",
            "pbrMetallicRoughness" : {
                "baseColorFactor" : [
                    0.4065178632736206,
                    0.37057170271873474,
                    0.4200303554534912,
                    1
                ],
                "roughnessFactor" : 0.6417322754859924
            }
        },
        {
            "doubleSided" : true,
            "name" : "TreasureMetal2",
            "pbrMetallicRoughness" : {
                "baseColorFactor" : [
                    0.8000000715255737,
                    0.5850470662117004,
                    0.510093092918396,
                    1
                ],
                "roughnessFactor" : 0.5
            }
        }
    ],
    "meshes" : [
        {
            "name" : "Cylinder.020",
            "primitives" : [
                {
                    "attributes" : {
                        "POSITION" : 0,
                        "NORMAL" : 1,
                        "TEXCOORD_0" : 2
                    },
                    "indices" : 3,
                    "material" : 0
                },
                {
                    "attributes" : {
                        "POSITION" : 4,
                        "NORMAL" : 5,
                        "TEXCOORD_0" : 6
                    },
                    "indices" : 7,
                    "material" : 1
                },
                {
                    "attributes" : {
                        "POSITION" : 8,
                        "NORMAL" : 9,
                        "TEXCOORD_0" : 10
                    },
                    "indices" : 11,
                    "material" : 2
                }
            ]
        }
    ],
    "accessors" : [
        {
            "bufferView" : 0,
            "componentType" : 5126,
            "count" : 424,
            "max" : [
                0.2565183639526367,
                0.16889631748199463,
                0.34117937088012695
            ],
            "min" : [
                -0.2565183639526367,
                0.03243771195411682,
                0.008628860116004944
            ],
            "type" : "VEC3"
        },
        {
            "bufferView" : 1,
            "componentType" : 5126,
            "count" : 424,
            "type" : "VEC3"
        },
        {
            "bufferView" : 2,
            "componentType" : 5126,
            "count" : 424,
            "type" : "VEC2"
        },
        {
            "bufferView" : 3,
            "componentType" : 5123,
            "count" : 690,
            "type" : "SCALAR"
        },
        {
            "bufferView" : 4,
            "componentType" : 5126,
            "count" : 482,
            "max" : [
                0.26481935381889343,
                0.1705579161643982,
                0.3499230444431305
            ],
            "min" : [
                -0.26481935381889343,
                -0.0006365031003952026,
                -0.00011479854583740234
            ],
            "type" : "VEC3"
        },
        {
            "bufferView" : 5,
            "componentType" : 5126,
            "count" : 482,
            "type" : "VEC3"
        },
        {
            "bufferView" : 6,
            "componentType" : 5126,
            "count" : 482,
            "type" : "VEC2"
        },
        {
            "bufferView" : 7,
            "componentType" : 5123,
            "count" : 744,
            "type" : "SCALAR"
        },
        {
            "bufferView" : 8,
            "componentType" : 5126,
            "count" : 86,
            "max" : [
                0.021211648359894753,
                0.024379253387451172,
                0.3591601848602295
            ],
            "min" : [
                -0.021207960322499275,
                -0.0021060025319457054,
                0.34711211919784546
            ],
            "type" : "VEC3"
        },
        {
            "bufferView" : 9,
            "componentType" : 5126,
            "count" : 86,
            "type" : "VEC3"
        },
        {
            "bufferView" : 10,
            "componentType" : 5126,
            "count" : 86,
            "type" : "VEC2"
        },
        {
            "bufferView" : 11,
            "componentType" : 5123,
            "count" : 132,
            "type" : "SCALAR"
        }
    ],
    "bufferViews" : [
        {
            "buffer" : 0,
            "byteLength" : 5088,
            "byteOffset" : 0
        },
        {
            "buffer" : 0,
            "byteLength" : 5088,
            "byteOffset" : 5088
        },
        {
            "buffer" : 0,
            "byteLength" : 3392,
            "byteOffset" : 10176
        },
        {
            "buffer" : 0,
            "byteLength" : 1380,
            "byteOffset" : 13568
        },
        {
            "buffer" : 0,
            "byteLength" : 5784,
            "byteOffset" : 14948
        },
        {
            "buffer" : 0,
            "byteLength" : 5784,
            "byteOffset" : 20732
        },
        {
            "buffer" : 0,
            "byteLength" : 3856,
            "byteOffset" : 26516
        },
        {
            "buffer" : 0,
            "byteLength" : 1488,
            "byteOffset" : 30372
        },
        {
            "buffer" : 0,
            "byteLength" : 1032,
            "byteOffset" : 31860
        },
        {
            "buffer" : 0,
            "byteLength" : 1032,
            "byteOffset" : 32892
        },
        {
            "buffer" : 0,
            "byteLength" : 688,
            "byteOffset" : 33924
        },
        {
            "buffer" : 0,
            "byteLength" : 264,
            "byteOffset" : 34612
        }
    ],
    "buffers" : [
        {
            "byteLength" : 34876,
            "uri" : "TreasureChestTop.bin"
        }
    ]
}
