{
    "asset" : {
        "generator" : "Khronos glTF Blender I/O v1.8.19",
        "version" : "2.0"
    },
    "scene" : 0,
    "scenes" : [
        {
            "name" : "Scene",
            "nodes" : [
                0
            ]
        }
    ],
    "nodes" : [
        {
            "mesh" : 0,
            "name" : "TreasuerChestBase"
        }
    ],
    "materials" : [
        {
            "doubleSided" : true,
            "name" : "TreasureWood",
            "pbrMetallicRoughness" : {
                "baseColorFactor" : [
                    0.06071936711668968,
                    0.03470872342586517,
                    0.029354367405176163,
                    1
                ],
                "metallicFactor" : 0,
                "roughnessFactor" : 0.8149605989456177
            }
        },
        {
            "doubleSided" : true,
            "name" : "TreasureMetal",
            "pbrMetallicRoughness" : {
                "baseColorFactor" : [
                    0.4065178632736206,
                    0.37057170271873474,
                    0.4200303554534912,
                    1
                ],
                "roughnessFactor" : 0.6417322754859924
            }
        },
        {
            "doubleSided" : true,
            "name" : "TreasureMetal2",
            "pbrMetallicRoughness" : {
                "baseColorFactor" : [
                    0.8000000715255737,
                    0.5850470662117004,
                    0.510093092918396,
                    1
                ],
                "roughnessFactor" : 0.5
            }
        }
    ],
    "meshes" : [
        {
            "name" : "Cube.005",
            "primitives" : [
                {
                    "attributes" : {
                        "POSITION" : 0,
                        "NORMAL" : 1,
                        "TEXCOORD_0" : 2
                    },
                    "indices" : 3,
                    "material" : 0
                },
                {
                    "attributes" : {
                        "POSITION" : 4,
                        "NORMAL" : 5,
                        "TEXCOORD_0" : 6
                    },
                    "indices" : 7,
                    "material" : 1
                },
                {
                    "attributes" : {
                        "POSITION" : 8,
                        "NORMAL" : 9,
                        "TEXCOORD_0" : 10
                    },
                    "indices" : 11,
                    "material" : 2
                }
            ]
        }
    ],
    "accessors" : [
        {
            "bufferView" : 0,
            "componentType" : 5126,
            "count" : 96,
            "max" : [
                0.25611984729766846,
                0.21896034479141235,
                0.16720518469810486
            ],
            "min" : [
                -0.25611984729766846,
                0,
                -0.17308805882930756
            ],
            "type" : "VEC3"
        },
        {
            "bufferView" : 1,
            "componentType" : 5126,
            "count" : 96,
            "type" : "VEC3"
        },
        {
            "bufferView" : 2,
            "componentType" : 5126,
            "count" : 96,
            "type" : "VEC2"
        },
        {
            "bufferView" : 3,
            "componentType" : 5123,
            "count" : 186,
            "type" : "SCALAR"
        },
        {
            "bufferView" : 4,
            "componentType" : 5126,
            "count" : 282,
            "max" : [
                0.26508498191833496,
                0.21896034479141235,
                0.17308805882930756
            ],
            "min" : [
                -0.26508498191833496,
                0,
                -0.17308805882930756
            ],
            "type" : "VEC3"
        },
        {
            "bufferView" : 5,
            "componentType" : 5126,
            "count" : 282,
            "type" : "VEC3"
        },
        {
            "bufferView" : 6,
            "componentType" : 5126,
            "count" : 282,
            "type" : "VEC2"
        },
        {
            "bufferView" : 7,
            "componentType" : 5123,
            "count" : 618,
            "type" : "SCALAR"
        },
        {
            "bufferView" : 8,
            "componentType" : 5126,
            "count" : 90,
            "max" : [
                0.021209804341197014,
                0.2192818969488144,
                0.1851010024547577
            ],
            "min" : [
                -0.021209804341197014,
                0.18874570727348328,
                0.16463106870651245
            ],
            "type" : "VEC3"
        },
        {
            "bufferView" : 9,
            "componentType" : 5126,
            "count" : 90,
            "type" : "VEC3"
        },
        {
            "bufferView" : 10,
            "componentType" : 5126,
            "count" : 90,
            "type" : "VEC2"
        },
        {
            "bufferView" : 11,
            "componentType" : 5123,
            "count" : 132,
            "type" : "SCALAR"
        }
    ],
    "bufferViews" : [
        {
            "buffer" : 0,
            "byteLength" : 1152,
            "byteOffset" : 0
        },
        {
            "buffer" : 0,
            "byteLength" : 1152,
            "byteOffset" : 1152
        },
        {
            "buffer" : 0,
            "byteLength" : 768,
            "byteOffset" : 2304
        },
        {
            "buffer" : 0,
            "byteLength" : 372,
            "byteOffset" : 3072
        },
        {
            "buffer" : 0,
            "byteLength" : 3384,
            "byteOffset" : 3444
        },
        {
            "buffer" : 0,
            "byteLength" : 3384,
            "byteOffset" : 6828
        },
        {
            "buffer" : 0,
            "byteLength" : 2256,
            "byteOffset" : 10212
        },
        {
            "buffer" : 0,
            "byteLength" : 1236,
            "byteOffset" : 12468
        },
        {
            "buffer" : 0,
            "byteLength" : 1080,
            "byteOffset" : 13704
        },
        {
            "buffer" : 0,
            "byteLength" : 1080,
            "byteOffset" : 14784
        },
        {
            "buffer" : 0,
            "byteLength" : 720,
            "byteOffset" : 15864
        },
        {
            "buffer" : 0,
            "byteLength" : 264,
            "byteOffset" : 16584
        }
    ],
    "buffers" : [
        {
            "byteLength" : 16848,
            "uri" : "TreasureChestEmpty.bin"
        }
    ]
}
