{
    "asset" : {
        "generator" : "Khronos glTF Blender I/O v1.8.19",
        "version" : "2.0"
    },
    "scene" : 0,
    "scenes" : [
        {
            "name" : "Scene",
            "nodes" : [
                0
            ]
        }
    ],
    "nodes" : [
        {
            "mesh" : 0,
            "name" : "Wall"
        }
    ],
    "materials" : [
        {
            "doubleSided" : true,
            "name" : "StoneC2",
            "pbrMetallicRoughness" : {
                "baseColorFactor" : [
                    0.18070824444293976,
                    0.2473224252462387,
                    0.29568904638290405,
                    1
                ],
                "metallicFactor" : 0,
                "roughnessFactor" : 0.5
            }
        },
        {
            "doubleSided" : true,
            "name" : "StoneC1",
            "pbrMetallicRoughness" : {
                "baseColorFactor" : [
                    0.23994414508342743,
                    0.2751571536064148,
                    0.3981030583381653,
                    1
                ],
                "metallicFactor" : 0,
                "roughnessFactor" : 0.4000000059604645
            }
        },
        {
            "doubleSided" : true,
            "name" : "StoneC3",
            "pbrMetallicRoughness" : {
                "baseColorFactor" : [
                    0.2512390613555908,
                    0.2463599145412445,
                    0.2913459241390228,
                    1
                ],
                "metallicFactor" : 0,
                "roughnessFactor" : 0.4000000059604645
            }
        },
        {
            "doubleSided" : true,
            "name" : "StoneC4",
            "pbrMetallicRoughness" : {
                "baseColorFactor" : [
                    0.13898058235645294,
                    0.2264261096715927,
                    0.3343231976032257,
                    1
                ],
                "metallicFactor" : 0,
                "roughnessFactor" : 0.4000000059604645
            }
        }
    ],
    "meshes" : [
        {
            "name" : "Cube.036",
            "primitives" : [
                {
                    "attributes" : {
                        "POSITION" : 0,
                        "NORMAL" : 1,
                        "TEXCOORD_0" : 2
                    },
                    "indices" : 3,
                    "material" : 0
                },
                {
                    "attributes" : {
                        "POSITION" : 4,
                        "NORMAL" : 5,
                        "TEXCOORD_0" : 6
                    },
                    "indices" : 7,
                    "material" : 1
                },
                {
                    "attributes" : {
                        "POSITION" : 8,
                        "NORMAL" : 9,
                        "TEXCOORD_0" : 10
                    },
                    "indices" : 11,
                    "material" : 2
                },
                {
                    "attributes" : {
                        "POSITION" : 12,
                        "NORMAL" : 13,
                        "TEXCOORD_0" : 14
                    },
                    "indices" : 15,
                    "material" : 3
                }
            ]
        }
    ],
    "accessors" : [
        {
            "bufferView" : 0,
            "componentType" : 5126,
            "count" : 1032,
            "max" : [
                0.20527337491512299,
                1.0058696269989014,
                0.832480788230896
            ],
            "min" : [
                -0.3052847981452942,
                0.1541735678911209,
                -1.0330687761306763
            ],
            "type" : "VEC3"
        },
        {
            "bufferView" : 1,
            "componentType" : 5126,
            "count" : 1032,
            "type" : "VEC3"
        },
        {
            "bufferView" : 2,
            "componentType" : 5126,
            "count" : 1032,
            "type" : "VEC2"
        },
        {
            "bufferView" : 3,
            "componentType" : 5123,
            "count" : 3912,
            "type" : "SCALAR"
        },
        {
            "bufferView" : 4,
            "componentType" : 5126,
            "count" : 735,
            "max" : [
                0.3277044892311096,
                0.7695096731185913,
                1.1870548725128174
            ],
            "min" : [
                -0.38984477519989014,
                -0.054337769746780396,
                -1.1281243562698364
            ],
            "type" : "VEC3"
        },
        {
            "bufferView" : 5,
            "componentType" : 5126,
            "count" : 735,
            "type" : "VEC3"
        },
        {
            "bufferView" : 6,
            "componentType" : 5126,
            "count" : 735,
            "type" : "VEC2"
        },
        {
            "bufferView" : 7,
            "componentType" : 5123,
            "count" : 2718,
            "type" : "SCALAR"
        },
        {
            "bufferView" : 8,
            "componentType" : 5126,
            "count" : 255,
            "max" : [
                0.2879464626312256,
                0.9506046772003174,
                0.5738129615783691
            ],
            "min" : [
                -0.2879464626312256,
                -2.9802322387695312e-08,
                -0.0470021516084671
            ],
            "type" : "VEC3"
        },
        {
            "bufferView" : 9,
            "componentType" : 5126,
            "count" : 255,
            "type" : "VEC3"
        },
        {
            "bufferView" : 10,
            "componentType" : 5126,
            "count" : 255,
            "type" : "VEC2"
        },
        {
            "bufferView" : 11,
            "componentType" : 5123,
            "count" : 972,
            "type" : "SCALAR"
        },
        {
            "bufferView" : 12,
            "componentType" : 5126,
            "count" : 1557,
            "max" : [
                0.27450668811798096,
                0.9039998054504395,
                0.46566450595855713
            ],
            "min" : [
                -0.33047837018966675,
                -2.9802322387695312e-08,
                -0.8473411798477173
            ],
            "type" : "VEC3"
        },
        {
            "bufferView" : 13,
            "componentType" : 5126,
            "count" : 1557,
            "type" : "VEC3"
        },
        {
            "bufferView" : 14,
            "componentType" : 5126,
            "count" : 1557,
            "type" : "VEC2"
        },
        {
            "bufferView" : 15,
            "componentType" : 5123,
            "count" : 6480,
            "type" : "SCALAR"
        }
    ],
    "bufferViews" : [
        {
            "buffer" : 0,
            "byteLength" : 12384,
            "byteOffset" : 0
        },
        {
            "buffer" : 0,
            "byteLength" : 12384,
            "byteOffset" : 12384
        },
        {
            "buffer" : 0,
            "byteLength" : 8256,
            "byteOffset" : 24768
        },
        {
            "buffer" : 0,
            "byteLength" : 7824,
            "byteOffset" : 33024
        },
        {
            "buffer" : 0,
            "byteLength" : 8820,
            "byteOffset" : 40848
        },
        {
            "buffer" : 0,
            "byteLength" : 8820,
            "byteOffset" : 49668
        },
        {
            "buffer" : 0,
            "byteLength" : 5880,
            "byteOffset" : 58488
        },
        {
            "buffer" : 0,
            "byteLength" : 5436,
            "byteOffset" : 64368
        },
        {
            "buffer" : 0,
            "byteLength" : 3060,
            "byteOffset" : 69804
        },
        {
            "buffer" : 0,
            "byteLength" : 3060,
            "byteOffset" : 72864
        },
        {
            "buffer" : 0,
            "byteLength" : 2040,
            "byteOffset" : 75924
        },
        {
            "buffer" : 0,
            "byteLength" : 1944,
            "byteOffset" : 77964
        },
        {
            "buffer" : 0,
            "byteLength" : 18684,
            "byteOffset" : 79908
        },
        {
            "buffer" : 0,
            "byteLength" : 18684,
            "byteOffset" : 98592
        },
        {
            "buffer" : 0,
            "byteLength" : 12456,
            "byteOffset" : 117276
        },
        {
            "buffer" : 0,
            "byteLength" : 12960,
            "byteOffset" : 129732
        }
    ],
    "buffers" : [
        {
            "byteLength" : 142692,
            "uri" : "Wall.bin"
        }
    ]
}
